<?xml version="1.0" standalone="no"?>
<!DOCTYPE svg PUBLIC "-//W3C//DTD SVG 20010904//EN"
 "http://www.w3.org/TR/2001/REC-SVG-20010904/DTD/svg10.dtd">
<svg version="1.0" xmlns="http://www.w3.org/2000/svg"
 width="350.000000pt" height="350.000000pt" viewBox="0 0 350.000000 350.000000"
 preserveAspectRatio="xMidYMid meet">
<metadata>
Created by potrace 1.11, written by Peter Selinger 2001-2013
</metadata>
<g transform="translate(0.000000,350.000000) scale(0.100000,-0.100000)"
fill="#000000" stroke="none">
<path d="M87 3489 c7 -7 15 -10 18 -7 3 3 -2 9 -12 12 -14 6 -15 5 -6 -5z"/>
<path d="M178 3493 c6 -2 18 -2 25 0 6 3 1 5 -13 5 -14 0 -19 -2 -12 -5z"/>
<path d="M588 3493 c7 -3 16 -2 19 1 4 3 -2 6 -13 5 -11 0 -14 -3 -6 -6z"/>
<path d="M1120 3489 c0 -5 5 -7 10 -4 6 3 10 8 10 11 0 2 -4 4 -10 4 -5 0 -10
-5 -10 -11z"/>
<path d="M1363 3484 c0 -16 13 -19 21 -5 3 5 0 11 -7 14 -8 3 -14 -1 -14 -9z"/>
<path d="M1585 3490 c3 -5 13 -10 21 -10 8 0 14 5 14 10 0 6 -9 10 -21 10 -11
0 -17 -4 -14 -10z"/>
<path d="M1710 3490 c-11 -8 -9 -9 13 -8 15 1 27 6 27 10 0 11 -22 10 -40 -2z"/>
<path d="M1808 3493 c7 -3 16 -2 19 1 4 3 -2 6 -13 5 -11 0 -14 -3 -6 -6z"/>
<path d="M1840 3491 c0 -5 9 -7 20 -4 11 3 20 7 20 9 0 2 -9 4 -20 4 -11 0
-20 -4 -20 -9z"/>
<path d="M2010 3490 c19 -13 30 -13 30 0 0 6 -10 10 -22 10 -19 0 -20 -2 -8
-10z"/>
<path d="M2653 3493 c9 -2 23 -2 30 0 6 3 -1 5 -18 5 -16 0 -22 -2 -12 -5z"/>
<path d="M2978 3493 c7 -3 16 -2 19 1 4 3 -2 6 -13 5 -11 0 -14 -3 -6 -6z"/>
<path d="M3470 3491 c0 -5 7 -11 15 -15 9 -3 15 0 15 9 0 8 -7 15 -15 15 -8 0
-15 -4 -15 -9z"/>
<path d="M436 3482 c-9 -14 10 -33 27 -26 21 8 22 20 1 28 -20 8 -22 8 -28 -2z"/>
<path d="M635 3480 c-3 -6 1 -7 9 -4 18 7 21 14 7 14 -6 0 -13 -4 -16 -10z"/>
<path d="M1655 3480 c3 -5 13 -10 21 -10 8 0 12 5 9 10 -3 6 -13 10 -21 10 -8
0 -12 -4 -9 -10z"/>
<path d="M2878 3483 c7 -3 16 -2 19 1 4 3 -2 6 -13 5 -11 0 -14 -3 -6 -6z"/>
<path d="M2935 3480 c4 -6 11 -8 16 -5 14 9 11 15 -7 15 -8 0 -12 -5 -9 -10z"/>
<path d="M3086 3481 c-6 -8 5 -20 31 -34 12 -8 12 10 0 31 -9 14 -24 16 -31 3z"/>
<path d="M83 3463 c9 -2 23 -2 30 0 6 3 -1 5 -18 5 -16 0 -22 -2 -12 -5z"/>
<path d="M532 3461 c4 -13 18 -16 19 -4 0 4 -5 9 -11 12 -7 2 -11 -2 -8 -8z"/>
<path d="M1995 3460 c-3 -5 1 -10 10 -10 9 0 13 5 10 10 -3 6 -8 10 -10 10 -2
0 -7 -4 -10 -10z"/>
<path d="M2250 3460 c0 -5 16 -10 35 -10 19 0 35 5 35 10 0 6 -16 10 -35 10
-19 0 -35 -4 -35 -10z"/>
<path d="M3025 3460 c-8 -13 -1 -24 14 -19 6 3 7 10 2 18 -6 10 -10 10 -16 1z"/>
<path d="M3220 3460 c0 -13 11 -13 30 0 12 8 11 10 -7 10 -13 0 -23 -4 -23
-10z"/>
<path d="M230 3450 c0 -5 7 -10 16 -10 8 0 12 5 9 10 -3 6 -10 10 -16 10 -5 0
-9 -4 -9 -10z"/>
<path d="M901 3451 c-8 -5 -21 -7 -29 -3 -10 3 -13 1 -8 -6 9 -15 66 -12 66 5
0 15 -9 16 -29 4z"/>
<path d="M1782 3448 c6 -16 65 -29 101 -22 22 5 26 9 17 19 -9 11 -16 12 -30
3 -14 -9 -25 -9 -45 0 -33 15 -48 15 -43 0z"/>
<path d="M1460 3430 c0 -5 9 -9 20 -7 31 5 36 17 7 17 -15 0 -27 -4 -27 -10z"/>
<path d="M2085 3430 c-3 -6 1 -7 9 -4 18 7 21 14 7 14 -6 0 -13 -4 -16 -10z"/>
<path d="M2750 3431 c-17 -5 -21 -9 -12 -15 15 -9 52 1 52 15 0 10 -4 10 -40
0z"/>
<path d="M1760 3415 c7 -9 15 -13 17 -11 7 7 -7 26 -19 26 -6 0 -6 -6 2 -15z"/>
<path d="M455 3410 c-3 -5 1 -10 9 -10 9 0 16 5 16 10 0 6 -4 10 -9 10 -6 0
-13 -4 -16 -10z"/>
<path d="M645 3410 c4 -6 11 -8 16 -5 14 9 11 15 -7 15 -8 0 -12 -5 -9 -10z"/>
<path d="M750 3411 c0 -5 5 -13 10 -16 6 -3 10 -2 10 4 0 5 -4 13 -10 16 -5 3
-10 2 -10 -4z"/>
<path d="M970 3409 c0 -11 40 -32 48 -25 3 3 0 6 -6 6 -7 0 -12 6 -12 13 0 8
-7 14 -15 14 -8 0 -15 -4 -15 -8z"/>
<path d="M2150 3406 c0 -9 5 -16 10 -16 6 0 10 4 10 9 0 6 -4 13 -10 16 -5 3
-10 -1 -10 -9z"/>
<path d="M2404 3409 c-12 -20 11 -26 29 -7 16 17 16 18 -2 18 -11 0 -23 -5
-27 -11z"/>
<path d="M268 3403 c7 -3 16 -2 19 1 4 3 -2 6 -13 5 -11 0 -14 -3 -6 -6z"/>
<path d="M1420 3403 c-8 -3 -26 -15 -39 -27 -13 -12 -21 -14 -16 -6 6 11 5 12
-4 4 -7 -6 -13 -20 -14 -32 0 -11 -4 -20 -7 -20 -3 0 -14 0 -25 -1 -17 -1 -18
-3 -5 -11 13 -9 13 -10 -1 -10 -8 0 -26 -11 -39 -24 -12 -14 -35 -28 -51 -31
-16 -4 -31 -10 -34 -15 -7 -11 -45 0 -45 13 0 6 -7 1 -16 -12 -12 -16 -23 -22
-40 -18 -30 5 -41 -8 -17 -22 14 -8 16 -14 8 -38 -13 -35 -74 -59 -106 -42
-26 13 -62 3 -39 -11 8 -5 23 -7 32 -4 15 4 16 1 7 -25 -15 -42 -33 -55 -58
-42 -11 6 -23 11 -26 11 -10 0 19 -26 35 -32 10 -3 1 -11 -24 -23 -22 -11 -34
-21 -27 -23 7 -2 18 1 24 7 20 20 27 12 14 -16 -16 -37 -32 -53 -53 -53 -14 0
-15 2 -3 17 12 14 12 16 -1 11 -8 -2 -20 -24 -26 -49 -9 -36 -15 -44 -33 -42
-13 2 -21 -3 -21 -12 0 -8 7 -15 16 -15 9 0 14 -7 12 -17 -1 -10 1 -24 6 -31
5 -8 4 -18 -2 -24 -6 -6 -6 -24 0 -50 11 -51 6 -65 -29 -79 -16 -6 -23 -13
-18 -15 7 -3 9 -27 5 -63 -3 -33 -2 -57 2 -55 4 3 8 0 8 -5 0 -6 7 -11 15 -11
21 0 19 -13 -5 -28 -22 -13 -17 -44 6 -35 10 4 14 -3 14 -22 0 -14 4 -24 9
-21 5 3 9 21 9 40 0 39 54 220 83 277 19 39 85 109 101 109 6 0 18 8 27 18 60
68 253 153 325 143 11 -2 16 2 12 8 -10 15 17 14 32 -1 9 -9 15 -9 24 0 7 7
22 12 33 12 12 0 25 3 29 8 7 6 165 42 191 43 30 1 106 -13 150 -29 58 -20
155 -73 155 -85 0 -9 31 -55 69 -102 22 -27 22 -29 5 -36 -18 -7 -18 -8 -1 -8
9 -1 22 -11 28 -24 8 -19 6 -31 -10 -59 -17 -32 -18 -37 -4 -42 9 -4 22 -1 29
5 10 8 14 5 19 -18 4 -15 10 -37 14 -48 5 -11 6 -36 4 -55 -11 -77 -6 -106 31
-180 20 -41 50 -90 65 -108 l29 -34 27 36 c70 91 113 124 129 98 6 -10 86 -2
86 9 0 5 -19 9 -42 9 -43 1 -43 1 -21 19 21 18 21 18 -17 19 -33 2 -41 -3 -59
-31 l-21 -32 0 33 c0 50 14 68 65 82 25 7 45 15 45 17 0 3 -8 18 -17 35 -17
28 -17 30 0 42 23 17 22 32 -3 39 -17 4 -19 11 -14 31 3 15 2 32 -4 39 -5 6
-13 36 -17 65 -4 29 -13 56 -22 60 -22 13 -7 79 19 85 11 3 17 10 13 16 -9 16
-35 13 -35 -4 0 -19 -11 -19 -54 2 -37 17 -41 35 -6 26 11 -3 20 0 20 6 0 6
-7 11 -16 11 -8 0 -12 5 -9 10 3 6 -1 10 -9 10 -9 0 -16 6 -16 14 0 8 -6 16
-12 19 -7 2 -9 8 -5 13 4 5 11 3 15 -3 10 -15 54 -11 60 6 3 10 0 12 -11 8
-11 -4 -14 -2 -10 9 3 7 0 14 -6 14 -6 0 -11 -7 -11 -15 0 -17 -16 -20 -25 -5
-4 6 -12 7 -18 3 -7 -4 -6 0 2 10 7 9 18 14 25 10 6 -3 3 3 -7 14 -9 11 -14
22 -11 26 3 3 -4 11 -17 17 -20 11 -21 13 -5 22 16 9 16 11 -1 24 -10 7 -13
14 -8 14 6 0 -8 9 -30 20 -22 11 -30 17 -18 14 13 -3 31 -1 40 5 16 9 15 10
-7 11 -26 0 -57 35 -40 45 5 3 1 14 -9 24 -22 22 -91 38 -91 21 0 -6 -5 -8
-11 -5 -6 4 -8 9 -5 13 7 6 -29 26 -64 35 -34 9 -106 -3 -88 -14 9 -6 5 -9
-14 -9 -14 0 -28 -5 -30 -11 -2 -6 -22 -2 -53 12 -28 12 -54 21 -59 20 -4 -1
-14 4 -22 10 -11 9 -14 8 -14 -8 0 -19 -18 -43 -32 -43 -4 0 -8 7 -8 16 0 9
-7 14 -17 12 -10 -2 -30 9 -45 24 -16 16 -34 28 -40 28 -9 0 -9 -3 0 -12 15
-15 15 -28 1 -28 -5 0 -7 4 -4 10 4 6 -5 8 -22 4 -21 -4 -33 0 -47 15 -22 24
-41 28 -32 6 3 -9 0 -15 -9 -15 -9 0 -12 6 -9 15 4 8 1 15 -6 15 -6 0 -18 -7
-26 -15 -20 -20 -31 -19 -31 3 -1 35 49 67 71 45 7 -7 46 -12 46 -6 0 3 -6 11
-14 19 -15 14 -48 17 -76 7z m40 -113 c8 -5 11 -10 5 -10 -5 0 -17 5 -25 10
-8 5 -10 10 -5 10 6 0 17 -5 25 -10z m160 0 c0 -5 -7 -10 -16 -10 -8 0 -12 5
-9 10 3 6 10 10 16 10 5 0 9 -4 9 -10z m328 -38 c-18 -17 -35 -28 -38 -25 -3
3 10 18 29 34 45 37 53 29 9 -9z m190 -14 c-3 -7 -11 -13 -18 -13 -7 0 -15 6
-17 13 -3 7 4 12 17 12 13 0 20 -5 18 -12z m-58 -23 c25 -14 25 -14 3 -15 -13
0 -23 5 -23 11 0 5 -5 7 -10 4 -6 -4 -8 -10 -5 -15 6 -10 -4 -40 -14 -40 -9 0
-8 42 2 58 10 15 16 15 47 -3z m80 -5 c0 -5 -5 -10 -11 -10 -5 0 -7 5 -4 10 3
6 8 10 11 10 2 0 4 -4 4 -10z m17 -26 c-3 -3 -12 -4 -19 -1 -8 3 -5 6 6 6 11
1 17 -2 13 -5z m-1150 -116 c-3 -8 -6 -5 -6 6 -1 11 2 17 5 13 3 -3 4 -12 1
-19z m-239 -531 c-1 -19 2 -40 7 -47 5 -8 3 -11 -6 -8 -18 6 -22 88 -4 88 3 0
4 -15 3 -33z"/>
<path d="M810 3390 c8 -5 20 -10 25 -10 6 0 3 5 -5 10 -8 5 -19 10 -25 10 -5
0 -3 -5 5 -10z"/>
<path d="M1307 3386 c-3 -8 2 -16 14 -19 23 -6 24 -1 5 18 -12 12 -15 12 -19
1z"/>
<path d="M2960 3380 c0 -5 12 -10 26 -10 14 0 23 4 19 10 -3 6 -15 10 -26 10
-10 0 -19 -4 -19 -10z"/>
<path d="M355 3370 c3 -5 8 -10 11 -10 2 0 4 5 4 10 0 6 -5 10 -11 10 -5 0 -7
-4 -4 -10z"/>
<path d="M1150 3370 c0 -6 7 -10 15 -10 8 0 15 2 15 4 0 2 -7 6 -15 10 -8 3
-15 1 -15 -4z"/>
<path d="M2083 3373 c-18 -7 -16 -23 2 -23 8 0 15 7 15 15 0 8 -1 15 -2 14 -2
0 -9 -3 -15 -6z"/>
<path d="M3347 3373 c-4 -3 -7 -11 -7 -17 0 -6 5 -5 12 2 6 6 9 14 7 17 -3 3
-9 2 -12 -2z"/>
<path d="M1695 3360 c-3 -5 3 -10 14 -10 11 0 22 -4 26 -10 3 -5 13 -6 21 -3
12 4 8 9 -16 19 -39 17 -37 17 -45 4z"/>
<path d="M1842 3349 c4 -27 23 -36 31 -15 4 10 -2 20 -14 27 -18 9 -20 8 -17
-12z"/>
<path d="M2130 3359 c0 -5 5 -7 10 -4 6 3 10 8 10 11 0 2 -4 4 -10 4 -5 0 -10
-5 -10 -11z"/>
<path d="M3040 3361 c0 -9 -9 -11 -30 -6 -35 8 -42 -10 -8 -19 24 -6 58 18 45
30 -4 4 -7 2 -7 -5z"/>
<path d="M825 3350 c-16 -7 -14 -8 12 -7 17 1 29 5 26 10 -5 9 -12 8 -38 -3z"/>
<path d="M930 3349 c0 -5 5 -7 10 -4 6 3 10 8 10 11 0 2 -4 4 -10 4 -5 0 -10
-5 -10 -11z"/>
<path d="M970 3350 c0 -5 5 -10 11 -10 5 0 7 5 4 10 -3 6 -8 10 -11 10 -2 0
-4 -4 -4 -10z"/>
<path d="M1800 3345 c-8 -9 -8 -15 -2 -15 12 0 26 19 19 26 -2 2 -10 -2 -17
-11z"/>
<path d="M2685 3350 c3 -5 13 -10 21 -10 8 0 14 5 14 10 0 6 -9 10 -21 10 -11
0 -17 -4 -14 -10z"/>
<path d="M1515 3340 c3 -5 8 -10 11 -10 2 0 4 5 4 10 0 6 -5 10 -11 10 -5 0
-7 -4 -4 -10z"/>
<path d="M3360 3335 c-10 -12 -9 -15 7 -15 10 0 24 -5 29 -10 8 -8 20 -7 40 2
l29 12 -37 4 c-21 2 -38 7 -38 13 0 14 -16 11 -30 -6z"/>
<path d="M340 3330 c0 -5 5 -10 10 -10 6 0 10 5 10 10 0 6 -4 10 -10 10 -5 0
-10 -4 -10 -10z"/>
<path d="M557 3333 c-4 -3 -7 -11 -7 -17 0 -6 5 -5 12 2 6 6 9 14 7 17 -3 3
-9 2 -12 -2z"/>
<path d="M1185 3320 c-18 -20 -16 -38 3 -26 8 5 24 46 18 46 -2 0 -11 -9 -21
-20z"/>
<path d="M2476 3329 c3 -5 -5 -9 -18 -10 l-23 0 22 -11 c23 -11 53 -5 53 11 0
5 -9 11 -20 14 -11 3 -18 1 -14 -4z"/>
<path d="M3105 3330 c-3 -5 -1 -10 4 -10 6 0 11 5 11 10 0 6 -2 10 -4 10 -3 0
-8 -4 -11 -10z"/>
<path d="M3170 3330 c-20 -12 -5 -24 16 -12 9 5 12 12 7 15 -5 3 -15 2 -23 -3z"/>
<path d="M167 3319 c7 -7 15 -10 18 -7 3 3 -2 9 -12 12 -14 6 -15 5 -6 -5z"/>
<path d="M675 3320 c3 -5 1 -10 -6 -10 -7 0 -10 -2 -7 -5 3 -4 18 -3 33 1 20
5 23 9 13 15 -18 12 -41 11 -33 -1z"/>
<path d="M1258 3323 c7 -3 16 -2 19 1 4 3 -2 6 -13 5 -11 0 -14 -3 -6 -6z"/>
<path d="M857 3313 c19 -3 39 -14 48 -26 8 -12 15 -16 15 -10 0 7 7 10 18 7
14 -5 15 -4 2 5 -13 10 -13 12 0 21 8 5 10 10 5 10 -6 0 -16 -5 -23 -12 -9 -9
-15 -9 -24 0 -7 7 -26 11 -42 10 l-31 -1 32 -4z"/>
<path d="M2200 3310 c0 -5 5 -10 10 -10 6 0 10 5 10 10 0 6 -4 10 -10 10 -5 0
-10 -4 -10 -10z"/>
<path d="M2650 3305 l-35 -13 30 -3 c17 -3 29 -9 28 -16 -4 -18 12 -16 27 2 7
8 17 12 23 8 6 -3 7 -1 3 5 -4 7 -15 12 -24 13 -14 0 -13 2 3 9 l20 9 -20 -1
c-11 0 -36 -6 -55 -13z"/>
<path d="M3030 3311 c0 -9 24 -21 41 -21 5 0 9 4 9 10 0 5 -7 6 -17 3 -11 -4
-14 -3 -9 5 4 7 1 12 -8 12 -9 0 -16 -4 -16 -9z"/>
<path d="M3240 3316 c0 -2 9 -6 20 -9 11 -3 20 -1 20 4 0 5 -9 9 -20 9 -11 0
-20 -2 -20 -4z"/>
<path d="M3465 3300 c-3 -5 1 -10 10 -10 9 0 13 5 10 10 -3 6 -8 10 -10 10 -2
0 -7 -4 -10 -10z"/>
<path d="M975 3290 c3 -5 8 -10 11 -10 2 0 4 5 4 10 0 6 -5 10 -11 10 -5 0 -7
-4 -4 -10z"/>
<path d="M2830 3290 c0 -5 5 -10 11 -10 5 0 7 5 4 10 -3 6 -8 10 -11 10 -2 0
-4 -4 -4 -10z"/>
<path d="M1010 3283 c0 -6 8 -17 18 -24 16 -13 16 -13 2 6 -8 11 -16 22 -17
24 -2 2 -3 0 -3 -6z"/>
<path d="M5 3270 c-8 -13 5 -13 25 0 13 8 13 10 -2 10 -9 0 -20 -4 -23 -10z"/>
<path d="M405 3271 c-6 -11 9 -23 19 -14 9 9 7 23 -3 23 -6 0 -12 -4 -16 -9z"/>
<path d="M691 3261 c-21 -6 -22 -8 -8 -19 8 -7 18 -9 21 -4 3 5 17 7 31 4 15
-2 25 0 25 7 0 6 -4 11 -9 11 -5 0 -15 2 -23 4 -7 2 -24 1 -37 -3z"/>
<path d="M775 3260 c3 -5 8 -10 11 -10 2 0 4 5 4 10 0 6 -5 10 -11 10 -5 0 -7
-4 -4 -10z"/>
<path d="M1175 3260 c-4 -6 3 -10 14 -10 25 0 27 6 6 13 -8 4 -17 2 -20 -3z"/>
<path d="M870 3256 c0 -2 7 -6 15 -10 8 -3 15 -1 15 4 0 6 -7 10 -15 10 -8 0
-15 -2 -15 -4z"/>
<path d="M2965 3249 c-4 -6 -1 -9 6 -7 8 1 14 -1 14 -5 0 -5 15 -15 33 -22 17
-8 32 -19 32 -24 0 -6 13 -8 33 -4 41 8 41 7 25 32 -16 26 -60 29 -52 4 5 -15
2 -14 -13 3 -22 25 -69 39 -78 23z"/>
<path d="M2490 3240 c0 -15 21 -23 32 -12 6 6 2 11 -11 15 -12 3 -21 1 -21 -3z"/>
<path d="M3410 3246 c0 -2 7 -6 15 -10 8 -3 15 -1 15 4 0 6 -7 10 -15 10 -8 0
-15 -2 -15 -4z"/>
<path d="M480 3230 c0 -5 4 -10 9 -10 6 0 13 5 16 10 3 6 -1 10 -9 10 -9 0
-16 -4 -16 -10z"/>
<path d="M860 3230 c0 -13 18 -22 24 -11 3 5 -1 11 -9 15 -8 3 -15 1 -15 -4z"/>
<path d="M2890 3222 c0 -4 9 -13 20 -20 19 -12 20 -11 8 8 -13 20 -28 27 -28
12z"/>
<path d="M1000 3210 c0 -5 5 -10 11 -10 5 0 7 5 4 10 -3 6 -8 10 -11 10 -2 0
-4 -4 -4 -10z"/>
<path d="M2280 3200 c0 -5 5 -10 10 -10 6 0 10 5 10 10 0 6 -4 10 -10 10 -5 0
-10 -4 -10 -10z"/>
<path d="M3430 3189 c-11 -19 -10 -20 9 -9 12 6 21 15 21 20 0 18 -19 11 -30
-11z"/>
<path d="M290 3191 c0 -12 29 -35 36 -28 11 10 -5 37 -21 37 -8 0 -15 -4 -15
-9z"/>
<path d="M466 3192 c-3 -6 -1 -14 5 -17 15 -10 25 3 12 16 -7 7 -13 7 -17 1z"/>
<path d="M600 3192 c0 -12 19 -26 26 -19 2 2 -2 10 -11 17 -9 8 -15 8 -15 2z"/>
<path d="M808 3193 c7 -3 16 -2 19 1 4 3 -2 6 -13 5 -11 0 -14 -3 -6 -6z"/>
<path d="M2460 3186 c0 -9 30 -14 35 -6 4 6 -3 10 -14 10 -12 0 -21 -2 -21 -4z"/>
<path d="M2575 3180 c-3 -5 1 -10 9 -10 9 0 16 -4 16 -10 0 -5 6 -10 14 -10 9
0 12 7 9 20 -6 21 -37 27 -48 10z"/>
<path d="M2750 3183 c0 -5 5 -15 10 -23 8 -13 10 -13 10 2 0 9 6 19 13 21 6 3
2 6 -10 6 -13 1 -23 -2 -23 -6z"/>
<path d="M660 3170 c0 -5 4 -10 9 -10 6 0 13 5 16 10 3 6 -1 10 -9 10 -9 0
-16 -4 -16 -10z"/>
<path d="M3390 3170 c0 -5 5 -10 10 -10 6 0 10 5 10 10 0 6 -4 10 -10 10 -5 0
-10 -4 -10 -10z"/>
<path d="M92 3163 c-19 -7 5 -33 30 -33 12 0 18 -5 15 -12 -3 -9 8 -14 35 -15
23 -2 37 1 33 7 -3 6 -15 10 -25 10 -11 0 -27 11 -36 25 -16 25 -27 28 -52 18z"/>
<path d="M440 3141 c0 -6 10 -11 23 -11 16 0 18 -3 9 -9 -10 -6 -7 -10 12 -13
47 -9 31 7 -36 40 -5 2 -8 -2 -8 -7z"/>
<path d="M2516 3135 c-3 -9 1 -18 10 -22 19 -7 28 2 21 22 -8 19 -23 19 -31 0z"/>
<path d="M640 3131 c0 -9 41 -23 48 -16 2 2 1 8 -3 14 -8 13 -45 15 -45 2z"/>
<path d="M1005 3130 c-3 -5 3 -10 14 -10 12 0 21 5 21 10 0 6 -6 10 -14 10 -8
0 -18 -4 -21 -10z"/>
<path d="M830 3120 c0 -5 -9 -10 -19 -10 -27 0 -35 -17 -11 -23 11 -3 26 3 34
12 18 20 20 31 6 31 -5 0 -10 -4 -10 -10z"/>
<path d="M16 3101 c-4 -7 -5 -15 -2 -18 9 -9 19 4 14 18 -4 11 -6 11 -12 0z"/>
<path d="M80 3090 c0 -5 5 -10 10 -10 6 0 10 5 10 10 0 6 -4 10 -10 10 -5 0
-10 -4 -10 -10z"/>
<path d="M315 3091 c-6 -11 33 -26 43 -16 4 3 0 10 -8 15 -19 12 -27 12 -35 1z"/>
<path d="M535 3090 c-3 -5 -1 -10 4 -10 6 0 11 5 11 10 0 6 -2 10 -4 10 -3 0
-8 -4 -11 -10z"/>
<path d="M2816 3091 c-11 -4 -15 -10 -10 -14 15 -9 47 -2 52 11 4 13 -13 14
-42 3z"/>
<path d="M3152 3071 c-11 -7 -10 -10 3 -15 29 -11 45 -7 39 9 -7 17 -22 19
-42 6z"/>
<path d="M3226 3053 c-6 -24 -12 -31 -24 -27 -12 4 -12 2 2 -7 13 -8 21 -8 23
-2 2 6 15 8 28 5 15 -2 25 0 25 7 0 6 -7 11 -15 11 -9 0 -19 10 -24 23 -8 21
-9 20 -15 -10z"/>
<path d="M3380 3065 c0 -8 7 -15 16 -15 14 0 14 3 4 15 -7 8 -14 15 -16 15 -2
0 -4 -7 -4 -15z"/>
<path d="M670 3060 c0 -6 7 -10 15 -10 8 0 15 2 15 4 0 2 -7 6 -15 10 -8 3
-15 1 -15 -4z"/>
<path d="M2334 3061 c4 -5 3 -11 -1 -14 -5 -2 -2 -2 5 0 8 1 20 3 28 3 9 0 12
5 9 10 -3 6 -15 10 -26 10 -11 0 -18 -4 -15 -9z"/>
<path d="M575 3050 c-3 -5 1 -10 10 -10 9 0 13 5 10 10 -3 6 -8 10 -10 10 -2
0 -7 -4 -10 -10z"/>
<path d="M640 3030 c0 -5 6 -10 14 -10 8 0 18 5 21 10 3 6 -3 10 -14 10 -12 0
-21 -4 -21 -10z"/>
<path d="M780 3031 c0 -6 -8 -8 -17 -4 -14 5 -15 3 -6 -7 7 -8 16 -9 28 -2 12
6 14 11 6 16 -6 4 -11 3 -11 -3z"/>
<path d="M3335 3030 c3 -5 8 -10 11 -10 2 0 4 5 4 10 0 6 -5 10 -11 10 -5 0
-7 -4 -4 -10z"/>
<path d="M410 3026 c0 -2 7 -6 15 -10 8 -3 15 -1 15 4 0 6 -7 10 -15 10 -8 0
-15 -2 -15 -4z"/>
<path d="M2845 3010 c3 -5 14 -10 23 -10 15 0 15 2 2 10 -20 13 -33 13 -25 0z"/>
<path d="M3298 3013 c7 -3 16 -2 19 1 4 3 -2 6 -13 5 -11 0 -14 -3 -6 -6z"/>
<path d="M3055 3000 c3 -5 14 -10 23 -10 15 0 15 2 2 10 -20 13 -33 13 -25 0z"/>
<path d="M270 2990 c0 -5 5 -10 10 -10 6 0 10 5 10 10 0 6 -4 10 -10 10 -5 0
-10 -4 -10 -10z"/>
<path d="M706 2992 c-3 -6 -1 -14 5 -17 15 -10 25 3 12 16 -7 7 -13 7 -17 1z"/>
<path d="M285 2969 c-10 -15 -2 -19 23 -12 12 3 19 9 16 14 -7 12 -31 11 -39
-2z"/>
<path d="M518 2969 c-2 -7 -22 -18 -44 -25 l-39 -12 36 -1 c42 -1 73 18 60 38
-7 10 -9 11 -13 0z"/>
<path d="M830 2970 c0 -5 5 -10 11 -10 5 0 7 5 4 10 -3 6 -8 10 -11 10 -2 0
-4 -4 -4 -10z"/>
<path d="M2930 2960 c0 -5 5 -10 11 -10 5 0 7 -4 4 -10 -3 -5 0 -10 8 -10 10
0 13 7 10 20 -5 20 -33 29 -33 10z"/>
<path d="M2818 2953 c6 -2 18 -2 25 0 6 3 1 5 -13 5 -14 0 -19 -2 -12 -5z"/>
<path d="M206 2935 c-3 -8 -1 -15 4 -15 13 0 22 18 11 24 -5 3 -11 -1 -15 -9z"/>
<path d="M370 2940 c0 -5 5 -10 10 -10 6 0 10 5 10 10 0 6 -4 10 -10 10 -5 0
-10 -4 -10 -10z"/>
<path d="M770 2939 c0 -5 5 -7 10 -4 6 3 10 8 10 11 0 2 -4 4 -10 4 -5 0 -10
-5 -10 -11z"/>
<path d="M2311 2928 c9 -16 13 -17 27 -6 9 7 18 13 20 14 2 1 -11 4 -27 6 -27
4 -29 2 -20 -14z"/>
<path d="M3120 2940 c0 -13 11 -13 30 0 12 8 11 10 -7 10 -13 0 -23 -4 -23
-10z"/>
<path d="M2405 2930 c-3 -6 1 -7 9 -4 18 7 21 14 7 14 -6 0 -13 -4 -16 -10z"/>
<path d="M3235 2920 c-3 -5 -1 -10 4 -10 6 0 11 5 11 10 0 6 -2 10 -4 10 -3 0
-8 -4 -11 -10z"/>
<path d="M408 2913 c6 -2 18 -2 25 0 6 3 1 5 -13 5 -14 0 -19 -2 -12 -5z"/>
<path d="M2867 2906 c-7 -18 1 -26 25 -26 10 0 18 -4 18 -10 0 -5 10 -10 23
-9 l22 0 -22 11 c-13 6 -23 17 -23 23 0 7 -7 16 -16 19 -21 8 -21 8 -27 -8z"/>
<path d="M3270 2910 c0 -5 11 -10 25 -10 14 0 25 5 25 10 0 6 -11 10 -25 10
-14 0 -25 -4 -25 -10z"/>
<path d="M3463 2903 c-7 -2 -13 -9 -13 -14 0 -14 26 -10 40 6 10 12 10 15 -1
14 -8 0 -20 -3 -26 -6z"/>
<path d="M66 2891 c-18 -7 -18 -8 -3 -14 9 -3 17 -2 17 3 0 5 8 11 18 13 11 3
12 5 2 5 -8 0 -24 -3 -34 -7z"/>
<path d="M548 2889 c13 -5 26 -18 29 -29 5 -20 23 -28 23 -11 0 5 8 12 18 14
12 3 11 5 -6 6 -13 0 -30 8 -38 16 -9 8 -23 15 -32 14 -12 0 -10 -3 6 -10z"/>
<path d="M3045 2890 c3 -5 13 -10 21 -10 8 0 12 5 9 10 -3 6 -13 10 -21 10 -8
0 -12 -4 -9 -10z"/>
<path d="M245 2880 c3 -5 11 -10 16 -10 6 0 7 5 4 10 -3 6 -11 10 -16 10 -6 0
-7 -4 -4 -10z"/>
<path d="M448 2883 c-10 -2 -18 -9 -18 -14 0 -6 7 -6 18 -1 9 5 24 12 32 15
13 5 13 5 0 5 -8 0 -23 -2 -32 -5z"/>
<path d="M3401 2861 c-8 -5 -10 -14 -7 -20 9 -13 33 -15 40 -2 9 14 -18 31
-33 22z"/>
<path d="M3298 2852 c-10 -2 -18 -7 -18 -12 0 -5 -7 -7 -15 -4 -9 4 -15 0 -15
-8 0 -11 10 -14 38 -12 20 2 47 3 60 3 14 1 22 7 22 19 0 17 -31 23 -72 14z"/>
<path d="M205 2841 c-6 -5 -23 -11 -40 -13 -48 -5 -35 -23 17 -24 38 -1 46 2
37 12 -6 7 -8 18 -4 24 8 12 2 13 -10 1z"/>
<path d="M700 2846 c0 -2 7 -6 15 -10 8 -3 15 -1 15 4 0 6 -7 10 -15 10 -8 0
-15 -2 -15 -4z"/>
<path d="M2433 2834 c-3 -8 -13 -14 -22 -14 -14 -1 -14 -2 0 -10 8 -5 24 -7
35 -5 10 2 25 4 32 4 20 1 14 15 -14 28 -20 9 -26 9 -31 -3z"/>
<path d="M2655 2840 c-6 -10 63 -26 72 -16 9 9 2 12 -34 19 -18 4 -35 2 -38
-3z"/>
<path d="M335 2830 c3 -5 8 -10 11 -10 2 0 4 5 4 10 0 6 -5 10 -11 10 -5 0 -7
-4 -4 -10z"/>
<path d="M407 2809 c-3 -13 -1 -19 6 -16 15 5 22 37 9 37 -5 0 -12 -9 -15 -21z"/>
<path d="M2545 2820 c-3 -5 -1 -10 4 -10 6 0 11 5 11 10 0 6 -2 10 -4 10 -3 0
-8 -4 -11 -10z"/>
<path d="M295 2810 c3 -5 11 -10 16 -10 6 0 7 5 4 10 -3 6 -11 10 -16 10 -6 0
-7 -4 -4 -10z"/>
<path d="M2916 2805 c-3 -9 0 -15 9 -15 8 0 15 7 15 15 0 8 -4 15 -9 15 -5 0
-11 -7 -15 -15z"/>
<path d="M2508 2803 c7 -3 16 -2 19 1 4 3 -2 6 -13 5 -11 0 -14 -3 -6 -6z"/>
<path d="M356 2783 c-6 -14 -5 -15 5 -6 7 7 10 15 7 18 -3 3 -9 -2 -12 -12z"/>
<path d="M3350 2790 c-13 -8 -13 -10 2 -10 9 0 20 5 23 10 8 13 -5 13 -25 0z"/>
<path d="M192 2778 c5 -15 28 -23 28 -10 0 5 -7 13 -16 16 -10 4 -14 1 -12 -6z"/>
<path d="M3104 2775 c27 -21 53 -20 36 0 -7 8 -22 15 -34 15 -21 -1 -21 -1 -2
-15z"/>
<path d="M580 2765 c-11 -13 -7 -15 26 -15 35 0 37 1 18 15 -24 18 -29 18 -44
0z"/>
<path d="M2680 2770 c0 -5 5 -10 11 -10 5 0 7 5 4 10 -3 6 -8 10 -11 10 -2 0
-4 -4 -4 -10z"/>
<path d="M3430 2776 c0 -2 7 -6 15 -10 8 -3 15 -1 15 4 0 6 -7 10 -15 10 -8 0
-15 -2 -15 -4z"/>
<path d="M2766 2762 c-3 -6 -1 -14 5 -17 15 -10 25 3 12 16 -7 7 -13 7 -17 1z"/>
<path d="M3202 2753 c14 -18 35 -16 35 2 0 9 -9 14 -23 13 -17 -2 -20 -5 -12
-15z"/>
<path d="M2825 2750 c-10 -17 5 -30 33 -29 24 0 25 1 7 9 l-20 9 20 1 20 1
-20 9 c-27 12 -33 12 -40 0z"/>
<path d="M3330 2750 c20 -13 40 -13 40 0 0 6 -12 10 -27 10 -22 0 -25 -2 -13
-10z"/>
<path d="M3060 2740 c-13 -8 -12 -10 3 -10 9 0 17 5 17 10 0 12 -1 12 -20 0z"/>
<path d="M735 2730 c-3 -5 1 -10 9 -10 9 0 19 0 23 -1 4 0 9 4 11 10 5 14 -35
14 -43 1z"/>
<path d="M2053 2726 c3 -8 -1 -20 -9 -27 -8 -6 -13 -14 -10 -16 2 -3 13 3 24
13 20 17 20 44 0 44 -6 0 -8 -6 -5 -14z"/>
<path d="M540 2726 c0 -2 7 -7 16 -10 8 -3 12 -2 9 4 -6 10 -25 14 -25 6z"/>
<path d="M2445 2710 c-3 -5 -1 -10 4 -10 6 0 11 5 11 10 0 6 -2 10 -4 10 -3 0
-8 -4 -11 -10z"/>
<path d="M3390 2710 c-13 -8 -12 -10 3 -10 9 0 17 5 17 10 0 12 -1 12 -20 0z"/>
<path d="M620 2700 c19 -13 30 -13 30 0 0 6 -10 10 -22 10 -19 0 -20 -2 -8
-10z"/>
<path d="M2480 2698 c0 -4 12 -8 26 -8 14 0 23 4 19 9 -6 11 -45 10 -45 -1z"/>
<path d="M3425 2690 c3 -5 8 -10 11 -10 2 0 4 5 4 10 0 6 -5 10 -11 10 -5 0
-7 -4 -4 -10z"/>
<path d="M428 2678 c17 -17 15 -28 -5 -28 -9 0 -14 -2 -11 -5 3 -3 19 -2 35 1
40 8 38 38 -2 41 -21 2 -25 -1 -17 -9z"/>
<path d="M2695 2679 c-10 -15 1 -23 20 -15 9 3 13 10 10 16 -8 13 -22 13 -30
-1z"/>
<path d="M2949 2667 c-14 -10 -14 -14 -3 -25 18 -16 23 -15 20 6 -2 9 2 20 8
24 6 4 7 8 1 8 -5 -1 -17 -6 -26 -13z"/>
<path d="M3100 2665 c7 -8 16 -12 21 -9 13 8 1 24 -18 24 -13 0 -13 -3 -3 -15z"/>
<path d="M3405 2670 c-3 -6 1 -10 9 -10 22 0 20 -18 -1 -22 -15 -3 -14 -5 5
-10 15 -4 22 -2 22 8 0 8 5 14 11 14 6 0 9 5 7 12 -5 15 -45 21 -53 8z"/>
<path d="M182 2658 c7 -19 38 -22 38 -4 0 10 -9 16 -21 16 -12 0 -19 -5 -17
-12z"/>
<path d="M3190 2655 c0 -8 9 -15 20 -15 11 0 20 2 20 5 0 2 -9 9 -20 15 -16 9
-20 8 -20 -5z"/>
<path d="M648 2653 c6 -2 12 -11 12 -19 0 -16 21 -19 36 -5 5 5 18 11 29 14
15 4 13 5 -7 6 -16 0 -28 -3 -28 -9 0 -5 -4 -10 -10 -10 -5 0 -10 7 -10 15 0
8 -8 15 -17 14 -11 0 -13 -3 -5 -6z"/>
<path d="M2508 2642 c-10 -2 -18 -8 -18 -13 0 -5 -7 -9 -15 -9 -8 0 -15 -5
-15 -11 0 -7 9 -9 23 -5 12 3 39 6 60 6 25 0 37 4 37 14 0 8 6 16 13 19 14 5
-59 4 -85 -1z"/>
<path d="M251 2631 c-8 -5 -9 -11 -3 -15 5 -3 15 1 22 9 14 16 3 20 -19 6z"/>
<path d="M305 2630 c-3 -6 1 -7 9 -4 18 7 21 14 7 14 -6 0 -13 -4 -16 -10z"/>
<path d="M100 2619 c0 -5 5 -7 10 -4 6 3 10 8 10 11 0 2 -4 4 -10 4 -5 0 -10
-5 -10 -11z"/>
<path d="M550 2600 c0 -5 7 -10 16 -10 8 0 12 5 9 10 -3 6 -10 10 -16 10 -5 0
-9 -4 -9 -10z"/>
<path d="M430 2590 c0 -5 7 -10 16 -10 8 0 12 5 9 10 -3 6 -10 10 -16 10 -5 0
-9 -4 -9 -10z"/>
<path d="M2840 2592 c0 -4 9 -15 20 -25 14 -11 20 -13 20 -4 0 7 -9 18 -20 25
-11 7 -20 9 -20 4z"/>
<path d="M520 2570 c0 -5 5 -10 10 -10 6 0 10 5 10 10 0 6 -4 10 -10 10 -5 0
-10 -4 -10 -10z"/>
<path d="M2738 2563 c7 -3 16 -2 19 1 4 3 -2 6 -13 5 -11 0 -14 -3 -6 -6z"/>
<path d="M3158 2563 c-21 -5 -24 -23 -4 -23 8 0 16 7 20 15 3 8 4 14 3 14 -1
-1 -10 -3 -19 -6z"/>
<path d="M2533 2546 c0 -7 9 -12 19 -12 10 0 18 3 18 7 0 4 -8 9 -18 11 -10 3
-19 0 -19 -6z"/>
<path d="M3240 2540 c-11 -7 -7 -10 18 -10 17 0 32 5 32 10 0 13 -30 13 -50 0z"/>
<path d="M228 2528 c7 -7 16 -7 28 0 14 8 13 10 -10 10 -18 0 -24 -4 -18 -10z"/>
<path d="M435 2531 c-11 -5 -25 -6 -31 -4 -7 2 -15 -1 -20 -8 -5 -9 -2 -10 9
-6 9 3 18 1 21 -6 5 -9 7 -9 12 1 3 6 19 12 35 12 18 0 28 -4 24 -10 -6 -9 1
-11 48 -14 10 -1 21 -7 26 -15 5 -7 14 -10 21 -6 13 8 -32 35 -60 35 -10 0
-23 7 -30 15 -14 16 -25 18 -55 6z"/>
<path d="M2480 2530 c0 -5 7 -7 15 -4 8 4 15 8 15 10 0 2 -7 4 -15 4 -8 0 -15
-4 -15 -10z"/>
<path d="M3390 2530 c-12 -8 -11 -10 8 -10 12 0 22 5 22 10 0 13 -11 13 -30 0z"/>
<path d="M588 2523 c6 -2 18 -2 25 0 6 3 1 5 -13 5 -14 0 -19 -2 -12 -5z"/>
<path d="M638 2518 c5 -5 16 -8 23 -6 8 3 3 7 -10 11 -17 4 -21 3 -13 -5z"/>
<path d="M3170 2526 c0 -2 7 -7 16 -10 8 -3 12 -2 9 4 -6 10 -25 14 -25 6z"/>
<path d="M315 2500 c2 -11 -1 -20 -6 -20 -6 0 -7 -5 -4 -10 4 -6 12 -4 22 5
17 17 40 14 35 -4 -1 -7 2 -10 7 -7 5 4 21 2 36 -4 17 -7 24 -7 20 0 -3 6 -12
10 -20 10 -7 0 -27 11 -43 25 -36 30 -52 32 -47 5z"/>
<path d="M3065 2510 c-3 -5 1 -10 9 -10 9 0 16 5 16 10 0 6 -4 10 -9 10 -6 0
-13 -4 -16 -10z"/>
<path d="M2955 2499 c-11 -16 -1 -19 13 -3 7 8 8 14 3 14 -5 0 -13 -5 -16 -11z"/>
<path d="M3345 2490 c3 -5 8 -10 11 -10 2 0 4 5 4 10 0 6 -5 10 -11 10 -5 0
-7 -4 -4 -10z"/>
<path d="M3010 2480 c0 -5 5 -10 11 -10 5 0 7 5 4 10 -3 6 -8 10 -11 10 -2 0
-4 -4 -4 -10z"/>
<path d="M675 2470 c-16 -7 -17 -9 -3 -9 9 -1 20 4 23 9 7 11 7 11 -20 0z"/>
<path d="M3326 2471 c-4 -6 -2 -11 4 -11 7 0 10 -6 8 -12 -7 -20 21 -43 35
-29 8 8 5 18 -15 37 -16 17 -28 22 -32 15z"/>
<path d="M624 2435 c11 -8 22 -12 25 -9 6 6 -19 24 -34 24 -5 -1 -1 -7 9 -15z"/>
<path d="M2840 2440 c0 -5 4 -10 9 -10 6 0 13 5 16 10 3 6 -1 10 -9 10 -9 0
-16 -4 -16 -10z"/>
<path d="M170 2430 c0 -5 5 -10 10 -10 6 0 10 5 10 10 0 6 -4 10 -10 10 -5 0
-10 -4 -10 -10z"/>
<path d="M681 2433 c0 -4 4 -17 9 -28 8 -19 9 -19 9 2 1 12 -3 25 -9 28 -5 3
-10 3 -9 -2z"/>
<path d="M500 2410 c-11 -7 -9 -11 13 -19 36 -14 50 -14 42 -1 -4 6 -11 8 -16
5 -5 -4 -9 1 -9 9 0 18 -8 20 -30 6z"/>
<path d="M570 2412 c0 -12 19 -26 26 -19 2 2 -2 10 -11 17 -9 8 -15 8 -15 2z"/>
<path d="M424 2395 c3 -9 6 -19 6 -21 0 -2 7 -4 15 -4 21 0 19 13 -6 29 -19
11 -21 11 -15 -4z"/>
<path d="M124 2378 c10 -6 27 -6 44 0 24 8 23 9 -17 9 -32 0 -39 -2 -27 -9z"/>
<path d="M2720 2380 c0 -5 5 -10 11 -10 5 0 7 5 4 10 -3 6 -8 10 -11 10 -2 0
-4 -4 -4 -10z"/>
<path d="M3190 2380 c0 -5 5 -10 11 -10 5 0 7 5 4 10 -3 6 -8 10 -11 10 -2 0
-4 -4 -4 -10z"/>
<path d="M596 2354 c-7 -26 7 -54 26 -54 6 0 6 6 -1 14 -9 11 -9 15 1 19 8 3
5 6 -7 7 -19 1 -19 2 -2 9 17 6 17 9 4 19 -12 10 -16 8 -21 -14z"/>
<path d="M200 2360 c0 -6 7 -10 15 -10 8 0 15 2 15 4 0 2 -7 6 -15 10 -8 3
-15 1 -15 -4z"/>
<path d="M710 2350 c0 -12 40 -34 47 -26 9 8 -17 36 -33 36 -8 0 -14 -4 -14
-10z"/>
<path d="M2780 2349 c0 -5 9 -9 20 -9 11 0 20 2 20 4 0 2 -9 6 -20 9 -11 3
-20 1 -20 -4z"/>
<path d="M3307 2351 c-27 -6 -27 -6 -7 -19 12 -7 20 -8 20 -2 0 5 9 10 21 10
11 0 17 5 14 10 -7 11 -6 11 -48 1z"/>
<path d="M110 2335 c0 -8 9 -15 20 -15 11 0 20 2 20 5 0 2 -9 9 -20 15 -16 9
-20 8 -20 -5z"/>
<path d="M1754 2318 c-4 -6 -26 -8 -50 -5 -24 2 -44 2 -44 -2 0 -3 -27 -7 -59
-9 -32 -1 -72 -9 -87 -17 -16 -8 -35 -15 -42 -15 -7 0 -20 -4 -30 -9 -9 -5
-35 -17 -56 -27 -50 -24 -76 -49 -76 -72 0 -24 55 -106 87 -132 14 -11 36 -20
49 -20 12 0 24 -4 26 -8 12 -29 188 -70 188 -43 0 5 13 14 28 20 38 16 82 58
82 78 0 13 -3 14 -12 5 -7 -7 -21 -12 -32 -12 -20 0 -19 2 4 20 14 10 38 21
55 24 58 11 98 40 100 72 0 16 4 40 9 54 5 16 4 20 -2 12 -5 -8 -20 -13 -33
-12 -52 5 -62 1 -49 -15 13 -16 14 -16 -40 -20 -14 -1 -60 -5 -102 -9 -73 -7
-76 -7 -71 12 5 21 24 29 95 37 73 9 102 16 136 33 31 16 41 35 24 46 -22 13
-92 23 -98 14z"/>
<path d="M2600 2320 c0 -5 6 -10 14 -10 8 0 18 5 21 10 3 6 -3 10 -14 10 -12
0 -21 -4 -21 -10z"/>
<path d="M715 2300 c3 -5 8 -10 11 -10 2 0 4 5 4 10 0 6 -5 10 -11 10 -5 0 -7
-4 -4 -10z"/>
<path d="M450 2285 l-25 -14 26 -1 c15 0 29 7 33 15 7 18 -2 18 -34 0z"/>
<path d="M812 2280 c0 -14 4 -36 8 -50 l8 -25 0 25 c0 14 -4 36 -8 50 l-8 25
0 -25z"/>
<path d="M3422 2288 c5 -15 48 -18 48 -3 0 6 -11 11 -26 13 -18 3 -25 0 -22
-10z"/>
<path d="M245 2280 c3 -5 12 -7 20 -3 21 7 19 13 -6 13 -11 0 -18 -4 -14 -10z"/>
<path d="M760 2280 c0 -5 5 -10 11 -10 5 0 7 5 4 10 -3 6 -8 10 -11 10 -2 0
-4 -4 -4 -10z"/>
<path d="M2560 2279 c0 -5 5 -7 10 -4 6 3 10 8 10 11 0 2 -4 4 -10 4 -5 0 -10
-5 -10 -11z"/>
<path d="M3250 2286 c0 -3 9 -10 20 -16 11 -6 20 -8 20 -6 0 3 -9 10 -20 16
-11 6 -20 8 -20 6z"/>
<path d="M2708 2273 c7 -3 16 -2 19 1 4 3 -2 6 -13 5 -11 0 -14 -3 -6 -6z"/>
<path d="M2530 2260 c0 -5 4 -10 9 -10 5 0 12 -11 15 -25 7 -28 24 -33 33 -9
4 11 -2 23 -18 35 -27 21 -39 24 -39 9z"/>
<path d="M3177 2249 c-16 -18 -15 -19 7 -19 13 0 26 6 29 14 9 23 -18 26 -36
5z"/>
<path d="M630 2250 c-18 -12 -2 -12 25 0 13 6 15 9 5 9 -8 0 -22 -4 -30 -9z"/>
<path d="M3086 2238 c-6 -24 0 -38 16 -38 5 0 7 8 4 17 -4 9 -2 20 4 23 8 5 7
9 -3 13 -10 4 -17 -2 -21 -15z"/>
<path d="M490 2240 c0 -5 8 -10 17 -10 9 0 25 -7 35 -17 16 -14 18 -15 18 0 0
18 -5 22 -42 31 -17 4 -28 2 -28 -4z"/>
<path d="M3250 2240 c0 -5 5 -10 10 -10 6 0 10 5 10 10 0 6 -4 10 -10 10 -5 0
-10 -4 -10 -10z"/>
<path d="M405 2230 c3 -5 11 -10 16 -10 6 0 7 5 4 10 -3 6 -11 10 -16 10 -6 0
-7 -4 -4 -10z"/>
<path d="M2324 2216 c-3 -8 -4 -25 -2 -37 2 -18 10 -22 51 -25 53 -4 57 3 26
47 -22 31 -65 40 -75 15z"/>
<path d="M2745 2220 c-3 -5 -2 -10 4 -10 5 0 13 5 16 10 3 6 2 10 -4 10 -5 0
-13 -4 -16 -10z"/>
<path d="M2923 2223 c-20 -7 -15 -31 7 -43 12 -6 20 -7 20 -1 0 5 -8 12 -17
15 -10 3 -6 4 10 2 15 -2 30 1 33 5 3 5 -2 9 -10 9 -9 0 -16 5 -16 10 0 11 -7
12 -27 3z"/>
<path d="M3035 2220 c3 -5 8 -10 11 -10 2 0 4 5 4 10 0 6 -5 10 -11 10 -5 0
-7 -4 -4 -10z"/>
<path d="M577 2209 c7 -7 15 -10 18 -7 3 3 -2 9 -12 12 -14 6 -15 5 -6 -5z"/>
<path d="M280 2195 c-10 -13 -9 -15 11 -14 13 0 18 3 11 6 -6 2 -10 9 -6 14 9
15 -2 10 -16 -6z"/>
<path d="M414 2192 c9 -15 48 -23 43 -9 -2 7 -14 14 -26 15 -13 2 -21 -1 -17
-6z"/>
<path d="M670 2171 c0 -6 5 -13 10 -16 6 -3 10 1 10 9 0 9 -4 16 -10 16 -5 0
-10 -4 -10 -9z"/>
<path d="M3240 2160 c0 -5 7 -10 16 -10 8 0 12 5 9 10 -3 6 -10 10 -16 10 -5
0 -9 -4 -9 -10z"/>
<path d="M753 2145 c-11 -12 -7 -15 23 -21 21 -4 40 -2 47 5 13 13 10 17 -28
24 -19 3 -35 0 -42 -8z"/>
<path d="M1014 2150 c-6 -6 -39 -15 -73 -21 -35 -5 -69 -16 -77 -24 -18 -18
-18 -69 1 -120 22 -62 20 -68 -20 -62 -21 3 -33 2 -30 -4 4 -5 20 -9 37 -9 23
0 29 -4 24 -15 -3 -8 -2 -14 2 -14 25 4 45 -6 82 -43 36 -34 52 -42 91 -46 42
-4 55 0 99 28 27 18 50 36 50 42 0 5 4 7 9 4 14 -9 22 37 22 129 0 92 -7 113
-48 140 -31 21 -152 32 -169 15z"/>
<path d="M3135 2150 c-19 -8 -19 -9 3 -9 12 -1 22 4 22 9 0 6 -1 10 -2 9 -2 0
-12 -4 -23 -9z"/>
<path d="M2529 2141 l-26 -6 20 -20 c11 -11 17 -14 13 -7 -5 7 1 15 15 20 29
11 12 20 -22 13z"/>
<path d="M2775 2130 c3 -5 11 -10 16 -10 6 0 7 5 4 10 -3 6 -11 10 -16 10 -6
0 -7 -4 -4 -10z"/>
<path d="M3185 2130 c-3 -5 1 -10 9 -10 9 0 16 5 16 10 0 6 -4 10 -9 10 -6 0
-13 -4 -16 -10z"/>
<path d="M250 2121 c0 -5 9 -11 21 -14 16 -4 18 -3 8 9 -13 16 -29 19 -29 5z"/>
<path d="M668 2103 c6 -2 18 -2 25 0 6 3 1 5 -13 5 -14 0 -19 -2 -12 -5z"/>
<path d="M3307 2086 c-4 -10 1 -12 14 -9 23 6 24 9 5 16 -8 3 -17 0 -19 -7z"/>
<path d="M3405 2090 c3 -5 13 -10 21 -10 8 0 14 5 14 10 0 6 -9 10 -21 10 -11
0 -17 -4 -14 -10z"/>
<path d="M2637 2074 c3 -8 10 -14 17 -14 15 0 44 19 31 21 -45 7 -53 5 -48 -7z"/>
<path d="M2710 2080 c0 -5 5 -10 11 -10 5 0 7 5 4 10 -3 6 -8 10 -11 10 -2 0
-4 -4 -4 -10z"/>
<path d="M430 2070 c0 -5 5 -10 11 -10 5 0 7 5 4 10 -3 6 -8 10 -11 10 -2 0
-4 -4 -4 -10z"/>
<path d="M3229 2067 c4 -4 18 -3 32 2 23 9 22 9 -8 8 -18 -1 -28 -6 -24 -10z"/>
<path d="M195 2060 c4 -6 11 -8 16 -5 14 9 11 15 -7 15 -8 0 -12 -5 -9 -10z"/>
<path d="M620 2040 c0 -5 5 -10 10 -10 6 0 10 5 10 10 0 6 -4 10 -10 10 -5 0
-10 -4 -10 -10z"/>
<path d="M3020 2032 c0 -5 14 -7 30 -4 17 2 30 6 30 8 0 2 -13 4 -30 4 -16 0
-30 -4 -30 -8z"/>
<path d="M172 2017 c-8 -10 -6 -13 9 -13 10 0 19 6 19 13 0 7 -4 13 -9 13 -5
0 -13 -6 -19 -13z"/>
<path d="M315 2020 c3 -5 8 -10 11 -10 2 0 4 5 4 10 0 6 -5 10 -11 10 -5 0 -7
-4 -4 -10z"/>
<path d="M2850 2025 c0 -2 10 -10 23 -16 20 -11 21 -11 8 4 -13 16 -31 23 -31
12z"/>
<path d="M385 2010 c3 -5 10 -10 16 -10 5 0 9 5 9 10 0 6 -7 10 -16 10 -8 0
-12 -4 -9 -10z"/>
<path d="M2950 2010 c0 -5 9 -10 20 -10 11 0 20 5 20 10 0 6 -9 10 -20 10 -11
0 -20 -4 -20 -10z"/>
<path d="M3430 2010 c0 -5 5 -10 10 -10 6 0 10 5 10 10 0 6 -4 10 -10 10 -5 0
-10 -4 -10 -10z"/>
<path d="M670 1989 c0 -5 5 -7 10 -4 6 3 10 8 10 11 0 2 -4 4 -10 4 -5 0 -10
-5 -10 -11z"/>
<path d="M765 1990 c3 -5 11 -10 16 -10 6 0 7 5 4 10 -3 6 -11 10 -16 10 -6 0
-7 -4 -4 -10z"/>
<path d="M2710 1990 c0 -5 7 -7 15 -4 8 4 15 8 15 10 0 2 -7 4 -15 4 -8 0 -15
-4 -15 -10z"/>
<path d="M3271 1980 c-13 -11 -18 -20 -13 -20 6 0 14 5 17 10 4 7 14 3 25 -10
19 -22 36 -28 23 -7 -8 12 -9 17 -12 37 -2 15 -13 12 -40 -10z"/>
<path d="M90 1986 c0 -2 7 -7 16 -10 8 -3 12 -2 9 4 -6 10 -25 14 -25 6z"/>
<path d="M298 1982 c-10 -2 -18 -8 -18 -13 0 -13 27 -11 35 2 9 13 4 16 -17
11z"/>
<path d="M360 1979 c0 -5 5 -7 10 -4 6 3 10 8 10 11 0 2 -4 4 -10 4 -5 0 -10
-5 -10 -11z"/>
<path d="M2745 1960 c-3 -5 -1 -10 4 -10 6 0 11 5 11 10 0 6 -2 10 -4 10 -3 0
-8 -4 -11 -10z"/>
<path d="M570 1952 c0 -18 19 -24 37 -13 10 6 13 11 6 11 -6 0 -18 3 -27 6 -9
3 -16 1 -16 -4z"/>
<path d="M2548 1953 c6 -2 18 -2 25 0 6 3 1 5 -13 5 -14 0 -19 -2 -12 -5z"/>
<path d="M23 1943 c-38 -7 -27 -30 15 -31 24 -1 32 2 23 7 -7 5 -10 14 -7 20
4 6 4 10 -1 10 -4 -1 -18 -4 -30 -6z"/>
<path d="M170 1940 c0 -5 5 -10 11 -10 5 0 7 5 4 10 -3 6 -8 10 -11 10 -2 0
-4 -4 -4 -10z"/>
<path d="M405 1940 c3 -5 1 -10 -5 -10 -6 0 -8 -5 -5 -11 4 -6 9 -8 12 -5 3 3
12 -1 19 -9 8 -8 21 -12 29 -9 11 5 7 12 -14 30 -30 25 -47 31 -36 14z"/>
<path d="M2698 1943 c7 -3 16 -2 19 1 4 3 -2 6 -13 5 -11 0 -14 -3 -6 -6z"/>
<path d="M3238 1943 c7 -3 16 -2 19 1 4 3 -2 6 -13 5 -11 0 -14 -3 -6 -6z"/>
<path d="M236 1932 c-2 -4 4 -9 15 -9 11 -1 17 2 14 8 -7 11 -22 12 -29 1z"/>
<path d="M470 1930 c0 -5 5 -10 11 -10 5 0 7 5 4 10 -3 6 -8 10 -11 10 -2 0
-4 -4 -4 -10z"/>
<path d="M2537 1929 c7 -7 15 -10 18 -7 3 3 -2 9 -12 12 -14 6 -15 5 -6 -5z"/>
<path d="M528 1923 c7 -3 16 -2 19 1 4 3 -2 6 -13 5 -11 0 -14 -3 -6 -6z"/>
<path d="M2844 1910 c0 -10 6 -16 13 -13 7 3 16 -2 19 -11 3 -9 14 -16 23 -16
12 0 10 5 -9 20 l-25 20 24 0 c31 0 25 5 -14 13 -25 5 -31 2 -31 -13z"/>
<path d="M128 1913 c6 -2 18 -2 25 0 6 3 1 5 -13 5 -14 0 -19 -2 -12 -5z"/>
<path d="M235 1900 c3 -5 8 -10 11 -10 2 0 4 5 4 10 0 6 -5 10 -11 10 -5 0 -7
-4 -4 -10z"/>
<path d="M495 1900 c-8 -13 5 -13 25 0 13 8 13 10 -2 10 -9 0 -20 -4 -23 -10z"/>
<path d="M2710 1900 c0 -5 5 -10 10 -10 6 0 10 5 10 10 0 6 -4 10 -10 10 -5 0
-10 -4 -10 -10z"/>
<path d="M689 1884 c23 -17 101 -26 101 -13 0 13 -32 19 -50 9 -10 -5 -20 -6
-22 -1 -2 4 -14 12 -28 16 l-25 7 24 -18z"/>
<path d="M32 1881 c4 -13 18 -16 19 -4 0 4 -5 9 -11 12 -7 2 -11 -2 -8 -8z"/>
<path d="M2485 1880 c-22 -4 -45 -6 -51 -3 -7 2 -15 -1 -19 -7 -5 -8 -11 -8
-21 1 -17 14 -29 6 -21 -16 5 -12 11 -13 33 -3 22 10 28 10 38 -4 11 -15 14
-15 36 3 14 10 33 19 43 19 9 0 17 5 17 10 0 6 -3 9 -7 9 -5 -1 -26 -5 -48 -9z"/>
<path d="M2615 1880 c3 -5 13 -10 21 -10 8 0 12 5 9 10 -3 6 -13 10 -21 10 -8
0 -12 -4 -9 -10z"/>
<path d="M558 1863 c7 -3 16 -2 19 1 4 3 -2 6 -13 5 -11 0 -14 -3 -6 -6z"/>
<path d="M3190 1850 c0 -5 7 -10 15 -10 8 0 15 5 15 10 0 6 -7 10 -15 10 -8 0
-15 -4 -15 -10z"/>
<path d="M436 1834 c-5 -14 -4 -15 9 -4 17 14 19 20 6 20 -5 0 -12 -7 -15 -16z"/>
<path d="M2770 1835 c0 -8 5 -15 10 -15 6 0 10 7 10 15 0 8 -4 15 -10 15 -5 0
-10 -7 -10 -15z"/>
<path d="M733 1833 c9 -2 23 -2 30 0 6 3 -1 5 -18 5 -16 0 -22 -2 -12 -5z"/>
<path d="M785 1820 c8 -13 35 -13 55 0 11 7 5 10 -23 10 -23 0 -36 -4 -32 -10z"/>
<path d="M468 1813 c6 -2 18 -2 25 0 6 3 1 5 -13 5 -14 0 -19 -2 -12 -5z"/>
<path d="M3059 1799 c-19 -16 -20 -19 -6 -15 10 3 22 6 27 6 4 0 10 7 14 15 8
21 -8 19 -35 -6z"/>
<path d="M3165 1810 c-3 -5 3 -10 15 -10 12 0 18 5 15 10 -3 6 -10 10 -15 10
-5 0 -12 -4 -15 -10z"/>
<path d="M3410 1810 c0 -5 5 -10 10 -10 6 0 10 5 10 10 0 6 -4 10 -10 10 -5 0
-10 -4 -10 -10z"/>
<path d="M695 1800 c-3 -5 -1 -10 4 -10 6 0 11 5 11 10 0 6 -2 10 -4 10 -3 0
-8 -4 -11 -10z"/>
<path d="M2640 1800 c0 -5 5 -10 10 -10 6 0 10 5 10 10 0 6 -4 10 -10 10 -5 0
-10 -4 -10 -10z"/>
<path d="M260 1788 c0 -4 5 -8 10 -8 17 0 11 -18 -7 -23 -10 -2 2 -3 27 -2 27
2 46 8 48 16 2 10 0 10 -7 -1 -9 -13 -15 -8 -13 11 1 4 -12 9 -28 11 -17 3
-30 1 -30 -4z"/>
<path d="M585 1790 c-17 -8 -16 -8 8 -7 15 1 27 5 27 9 0 10 -9 9 -35 -2z"/>
<path d="M3330 1784 c0 -9 5 -14 12 -12 18 6 21 28 4 28 -9 0 -16 -7 -16 -16z"/>
<path d="M1551 1774 c0 -11 3 -14 6 -6 3 7 2 16 -1 19 -3 4 -6 -2 -5 -13z"/>
<path d="M2494 1779 c-3 -6 -13 -7 -23 -4 -14 4 -17 -1 -15 -26 3 -44 24 -63
24 -22 0 30 14 53 22 35 1 -5 13 -6 25 -3 l22 6 -24 12 c-15 7 -27 7 -31 2z"/>
<path d="M2980 1775 c-10 -12 -9 -15 8 -15 11 0 28 -3 38 -7 23 -8 10 13 -16
27 -13 7 -21 6 -30 -5z"/>
<path d="M22 1768 c3 -7 13 -15 24 -17 16 -3 17 -1 5 13 -16 19 -34 21 -29 4z"/>
<path d="M465 1770 c3 -5 10 -10 16 -10 5 0 9 5 9 10 0 6 -7 10 -16 10 -8 0
-12 -4 -9 -10z"/>
<path d="M1576 1765 c3 -8 15 -17 26 -21 11 -3 49 -23 84 -43 l64 -37 -51 -12
c-97 -23 -149 -13 -149 29 0 14 -9 16 -67 12 -41 -3 -83 -14 -105 -26 -31 -17
-48 -19 -102 -14 -62 6 -67 5 -82 -18 -9 -14 -22 -25 -29 -25 -8 0 -17 -9 -20
-21 -4 -12 -12 -18 -21 -15 -8 3 -14 1 -14 -5 0 -6 -15 -9 -34 -8 -19 2 -38 0
-42 -4 -4 -4 -12 -7 -18 -7 -6 0 -5 4 2 9 11 6 7 13 -14 30 -15 12 -33 20 -40
17 -7 -3 -15 5 -19 17 -7 22 -8 22 -12 1 -2 -11 3 -33 11 -49 10 -20 12 -31 5
-36 -7 -4 -4 -9 6 -13 10 -3 15 -12 12 -20 -3 -8 -1 -16 5 -18 6 -2 12 -15 13
-28 2 -14 8 -37 14 -52 9 -23 8 -26 -7 -22 -10 3 -4 -6 13 -21 l30 -27 -61 5
c-54 4 -62 3 -59 -12 2 -16 17 -18 45 -7 8 3 36 -8 63 -24 46 -30 60 -50 33
-50 -8 0 -16 -7 -20 -15 -4 -11 2 -15 23 -15 28 0 61 -26 61 -49 0 -6 14 -25
30 -41 17 -16 30 -38 30 -50 0 -11 5 -20 10 -20 6 0 10 -5 10 -11 0 -6 -10
-10 -22 -9 -40 4 -48 1 -41 -16 5 -14 2 -16 -20 -10 -20 5 -25 3 -21 -7 6 -17
-21 -41 -39 -34 -8 3 -20 1 -28 -4 -12 -8 -12 -10 1 -19 13 -8 11 -12 -10 -27
-14 -9 -42 -35 -63 -57 -34 -37 -39 -39 -48 -23 -12 20 -39 23 -39 3 0 -7 10
-16 22 -19 l21 -6 -25 -33 c-18 -22 -33 -32 -48 -30 -19 2 -21 0 -10 -13 10
-13 8 -24 -11 -65 -20 -42 -27 -48 -46 -44 -27 7 -31 -10 -8 -33 16 -16 12
-33 -8 -33 -7 0 -14 -10 -14 -22 -4 -53 -13 -68 -40 -68 -26 0 -26 0 -8 -20
15 -16 16 -24 7 -43 -6 -12 -12 -33 -14 -47 -2 -19 -8 -24 -22 -22 -17 3 -18
1 -8 -11 17 -20 5 -65 -19 -78 -21 -11 -26 -39 -7 -39 6 0 2 -10 -10 -23 -11
-12 -20 -31 -18 -42 2 -11 -7 -44 -20 -74 -37 -84 -42 -81 107 -81 l130 0 25
58 c14 31 44 93 66 137 43 85 90 206 115 295 15 57 93 199 124 229 9 9 22 43
28 75 7 38 20 69 35 85 13 15 27 42 31 61 4 19 9 39 12 43 5 9 53 -42 53 -56
0 -5 9 -20 20 -34 25 -32 25 -44 1 -69 -62 -67 -135 -242 -146 -349 -2 -16 -8
-31 -14 -33 -6 -2 -11 -8 -11 -13 0 -16 36 -10 59 10 18 16 21 26 16 55 -7 34
-6 36 39 57 25 11 44 25 41 29 -3 5 3 14 12 20 17 11 17 11 1 6 -10 -3 -18 -2
-18 3 0 17 45 20 67 5 31 -20 29 -32 -4 -26 -16 2 -25 1 -20 -4 4 -4 15 -9 25
-10 80 -10 112 -17 117 -25 4 -5 11 -6 18 -2 6 3 1 -8 -12 -26 -13 -18 -67
-61 -120 -97 -63 -42 -111 -83 -140 -120 -23 -30 -41 -57 -38 -60 2 -3 18 13
33 34 39 53 107 110 197 166 42 26 83 58 92 72 9 13 20 22 26 18 6 -3 18 2 27
13 29 31 58 43 71 30 18 -18 14 15 -9 77 -13 35 -28 56 -40 59 -11 3 -18 1
-15 -3 3 -5 1 -11 -5 -15 -5 -3 -10 -1 -10 6 0 7 -3 10 -6 7 -3 -3 -16 4 -30
17 -24 22 -33 42 -14 30 6 -3 10 -2 10 3 0 22 32 19 61 -5 25 -22 32 -24 40
-12 5 8 9 10 9 5 0 -5 6 -4 13 1 6 5 39 20 72 33 151 58 181 76 273 169 50 50
95 91 101 91 5 0 13 9 16 20 4 11 11 18 16 15 5 -4 9 3 9 13 0 11 7 25 15 32
9 7 13 15 10 18 -3 3 2 14 12 24 9 10 13 18 10 18 -7 0 15 27 106 128 38 43
63 78 57 82 -7 4 -5 16 5 36 12 25 14 67 6 137 -1 4 -14 7 -30 7 -26 0 -47
-21 -43 -42 1 -5 -2 -8 -8 -8 -5 0 -10 5 -10 11 0 20 -45 5 -46 -16 -2 -36 -4
-37 -22 -15 -12 15 -24 20 -31 15 -9 -5 -9 -10 -3 -14 15 -9 -44 -72 -61 -65
-9 3 -16 -3 -20 -15 -3 -15 -13 -21 -32 -21 -14 0 -41 -11 -59 -25 -18 -14
-41 -25 -52 -26 -11 0 -13 -3 -6 -6 6 -2 12 -9 12 -15 0 -6 -7 -8 -15 -4 -11
4 -15 -2 -15 -20 0 -14 -4 -22 -10 -19 -5 3 -15 -5 -22 -19 -6 -14 -17 -26
-23 -26 -16 0 -75 -30 -75 -38 0 -13 -53 -31 -67 -24 -16 10 -83 3 -83 -8 0
-4 -18 -8 -40 -8 -22 0 -44 -3 -49 -7 -6 -3 -15 4 -21 16 -8 14 -18 19 -31 16
-10 -3 -22 -1 -25 4 -3 5 3 9 13 9 17 1 16 2 -2 16 -14 12 -16 18 -7 21 10 4
10 8 1 19 -10 12 -8 19 10 38 11 12 18 26 14 30 -4 4 -1 11 7 16 12 8 9 15
-20 37 -26 21 -47 28 -83 30 -47 1 -82 13 -40 13 12 0 23 3 25 8 9 21 90 50
158 56 41 4 91 12 112 18 26 8 45 7 68 0 23 -9 36 -8 51 1 24 15 35 68 19 97
-11 20 -10 21 9 15 19 -6 21 -2 21 28 0 24 -5 37 -17 41 -10 3 -27 12 -38 19
-32 20 -85 48 -87 46 -2 -2 -13 3 -26 10 -12 7 -38 14 -57 16 -27 4 -33 2 -29
-10z m-356 -167 c0 -31 -14 -58 -37 -73 -14 -9 -27 -15 -29 -12 -2 2 4 25 13
50 12 32 23 47 35 47 10 0 18 -6 18 -12z m355 -32 c17 -13 14 -15 -40 -26 -33
-6 -68 -14 -77 -16 -37 -11 -16 13 30 33 58 26 64 26 87 9z m-267 -190 c-10
-7 -15 -15 -12 -18 7 -8 54 15 54 27 0 15 20 -18 20 -33 0 -9 -7 -11 -20 -7
-11 4 -20 2 -20 -4 0 -6 -11 -13 -25 -17 -14 -3 -25 -12 -25 -19 0 -22 -32
-27 -52 -7 -26 26 -16 44 40 69 55 25 63 27 40 9z m157 4 c3 -5 1 -10 -4 -10
-6 0 -11 5 -11 10 0 6 2 10 4 10 3 0 8 -4 11 -10z m-324 -23 c-13 -13 -26 -3
-16 12 3 6 11 8 17 5 6 -4 6 -10 -1 -17z m44 -37 c3 -5 2 -10 -4 -10 -5 0 -13
5 -16 10 -3 6 -2 10 4 10 5 0 13 -4 16 -10z m125 -30 c0 -5 -2 -10 -4 -10 -3
0 -8 5 -11 10 -3 6 -1 10 4 10 6 0 11 -4 11 -10z m93 -68 c5 -2 -3 -12 -18
-22 -15 -10 -26 -21 -25 -26 1 -5 -4 -10 -11 -13 -7 -2 -10 2 -6 11 3 9 0 21
-6 28 -9 10 -9 14 1 17 6 3 9 9 6 14 -5 9 40 3 59 -9z m-1 -455 c5 26 140
-102 137 -132 -1 -11 0 -22 1 -25 14 -39 10 -43 -53 -36 -56 6 -66 11 -107 51
-43 44 -54 74 -12 35 26 -25 27 -23 6 18 -8 18 -13 36 -10 41 3 5 -1 22 -9 37
-25 48 -17 60 14 25 25 -28 30 -30 33 -14z m113 -49 c28 -29 41 -46 30 -38
-49 34 -100 90 -82 90 1 0 25 -23 52 -52z"/>
<path d="M1425 610 c10 -11 20 -20 23 -20 3 0 -3 9 -13 20 -10 11 -20 20 -23
20 -3 0 3 -9 13 -20z"/>
<path d="M2718 1773 c7 -3 16 -2 19 1 4 3 -2 6 -13 5 -11 0 -14 -3 -6 -6z"/>
<path d="M3113 1773 c15 -2 37 -2 50 0 12 2 0 4 -28 4 -27 0 -38 -2 -22 -4z"/>
<path d="M3216 1771 c-8 -13 23 -23 47 -15 16 5 17 8 6 15 -18 11 -46 11 -53
0z"/>
<path d="M420 1745 c0 -8 5 -15 10 -15 6 0 10 7 10 15 0 8 -4 15 -10 15 -5 0
-10 -7 -10 -15z"/>
<path d="M747 1753 c-10 -10 -8 -23 4 -23 5 0 7 6 4 13 -4 6 1 3 9 -7 16 -19
16 -19 16 2 0 21 -19 30 -33 15z"/>
<path d="M1200 1744 c0 -8 5 -12 10 -9 6 3 10 10 10 16 0 5 -4 9 -10 9 -5 0
-10 -7 -10 -16z"/>
<path d="M2791 1748 c13 -14 53 -38 61 -38 2 0 4 8 5 18 1 10 -6 18 -15 18 -9
0 -28 4 -42 8 -21 8 -22 7 -9 -6z"/>
<path d="M3070 1750 c0 -5 7 -10 16 -10 8 0 12 5 9 10 -3 6 -10 10 -16 10 -5
0 -9 -4 -9 -10z"/>
<path d="M95 1740 c3 -5 1 -10 -6 -10 -7 0 -10 -2 -7 -5 8 -9 38 6 32 16 -3 5
-10 9 -15 9 -6 0 -7 -4 -4 -10z"/>
<path d="M2525 1740 c3 -5 8 -10 11 -10 2 0 4 5 4 10 0 6 -5 10 -11 10 -5 0
-7 -4 -4 -10z"/>
<path d="M500 1725 c7 -8 16 -15 21 -15 5 0 9 7 9 15 0 9 -9 15 -21 15 -18 0
-19 -2 -9 -15z"/>
<path d="M1931 1711 c-11 -7 -11 -15 -1 -46 15 -47 33 -33 23 18 -6 27 -11 34
-22 28z"/>
<path d="M2795 1710 c-3 -5 -1 -10 4 -10 6 0 11 5 11 10 0 6 -2 10 -4 10 -3 0
-8 -4 -11 -10z"/>
<path d="M2925 1710 c-5 -8 84 -34 92 -27 2 3 -16 12 -41 20 -25 9 -48 12 -51
7z"/>
<path d="M3255 1710 c3 -5 8 -10 11 -10 2 0 4 5 4 10 0 6 -5 10 -11 10 -5 0
-7 -4 -4 -10z"/>
<path d="M3348 1713 c7 -3 16 -2 19 1 4 3 -2 6 -13 5 -11 0 -14 -3 -6 -6z"/>
<path d="M868 1698 c9 -9 15 -9 24 0 9 9 7 12 -12 12 -19 0 -21 -3 -12 -12z"/>
<path d="M115 1690 c3 -5 11 -10 16 -10 6 0 7 5 4 10 -3 6 -11 10 -16 10 -6 0
-7 -4 -4 -10z"/>
<path d="M270 1690 c0 -5 7 -10 16 -10 8 0 12 5 9 10 -3 6 -10 10 -16 10 -5 0
-9 -4 -9 -10z"/>
<path d="M478 1694 c-4 -4 3 -15 16 -25 27 -21 36 -24 36 -9 0 6 -5 10 -11 10
-7 0 -17 7 -23 16 -6 8 -15 12 -18 8z"/>
<path d="M3225 1689 c-10 -15 3 -25 16 -12 7 7 7 13 1 17 -6 3 -14 1 -17 -5z"/>
<path d="M2362 1669 c-12 -19 -11 -19 8 -9 11 6 20 15 20 20 0 17 -15 11 -28
-11z"/>
<path d="M555 1670 c-3 -5 1 -10 9 -10 9 0 16 5 16 10 0 6 -4 10 -9 10 -6 0
-13 -4 -16 -10z"/>
<path d="M690 1665 c0 -8 5 -15 10 -15 6 0 10 7 10 15 0 8 -4 15 -10 15 -5 0
-10 -7 -10 -15z"/>
<path d="M2470 1660 c0 -19 3 -21 12 -12 9 9 9 15 0 24 -9 9 -12 7 -12 -12z"/>
<path d="M3320 1670 c0 -5 7 -10 15 -10 8 0 15 5 15 10 0 6 -7 10 -15 10 -8 0
-15 -4 -15 -10z"/>
<path d="M2500 1660 c0 -5 5 -10 10 -10 6 0 10 5 10 10 0 6 -4 10 -10 10 -5 0
-10 -4 -10 -10z"/>
<path d="M605 1650 c3 -5 8 -10 11 -10 2 0 4 5 4 10 0 6 -5 10 -11 10 -5 0 -7
-4 -4 -10z"/>
<path d="M2326 1643 c-6 -14 -5 -15 5 -6 7 7 10 15 7 18 -3 3 -9 -2 -12 -12z"/>
<path d="M2907 1649 c7 -7 15 -10 18 -7 3 3 -2 9 -12 12 -14 6 -15 5 -6 -5z"/>
<path d="M3045 1650 c-3 -5 1 -10 10 -10 9 0 13 5 10 10 -3 6 -8 10 -10 10 -2
0 -7 -4 -10 -10z"/>
<path d="M278 1638 c-41 -14 -34 -23 21 -24 48 -2 49 -2 30 17 -10 10 -20 19
-21 18 -2 0 -15 -5 -30 -11z"/>
<path d="M2835 1640 c7 -12 32 -13 39 -2 2 4 -7 9 -20 10 -15 1 -22 -2 -19 -8z"/>
<path d="M630 1620 c0 -5 6 -10 14 -10 8 0 18 5 21 10 3 6 -3 10 -14 10 -12 0
-21 -4 -21 -10z"/>
<path d="M865 1621 c-10 -17 12 -21 25 -6 10 12 10 15 -3 15 -9 0 -18 -4 -22
-9z"/>
<path d="M2965 1621 c-3 -5 -1 -12 4 -15 12 -8 41 3 41 15 0 12 -37 12 -45 0z"/>
<path d="M2256 1611 c-4 -5 -3 -17 1 -27 5 -14 3 -16 -11 -11 -12 5 -16 3 -14
-5 3 -7 13 -13 23 -13 14 0 20 9 22 33 4 30 -9 43 -21 23z"/>
<path d="M96 1591 c-3 -5 1 -12 10 -15 27 -11 37 -7 24 9 -14 17 -26 19 -34 6z"/>
<path d="M2350 1590 c0 -5 5 -10 10 -10 6 0 10 5 10 10 0 6 -4 10 -10 10 -5 0
-10 -4 -10 -10z"/>
<path d="M3277 1594 c-9 -10 2 -24 19 -24 8 0 14 7 14 15 0 15 -21 21 -33 9z"/>
<path d="M897 1579 c7 -7 15 -10 18 -7 3 3 -2 9 -12 12 -14 6 -15 5 -6 -5z"/>
<path d="M2543 1575 c0 -18 19 -15 25 3 2 7 -3 12 -10 12 -8 0 -15 -7 -15 -15z"/>
<path d="M230 1576 c0 -2 7 -6 15 -10 8 -3 15 -1 15 4 0 6 -7 10 -15 10 -8 0
-15 -2 -15 -4z"/>
<path d="M3210 1570 c8 -5 20 -10 25 -10 6 0 3 5 -5 10 -8 5 -19 10 -25 10 -5
0 -3 -5 5 -10z"/>
<path d="M3078 1563 c-10 -2 -18 -9 -18 -14 0 -14 26 -11 40 6 13 15 9 16 -22
8z"/>
<path d="M158 1543 c7 -3 16 -2 19 1 4 3 -2 6 -13 5 -11 0 -14 -3 -6 -6z"/>
<path d="M680 1535 c0 -3 11 -10 25 -15 14 -5 25 -16 25 -25 0 -8 5 -15 11
-15 5 0 2 13 -8 30 -9 17 -25 30 -35 30 -10 0 -18 -2 -18 -5z"/>
<path d="M3227 1522 c-19 -21 -22 -32 -7 -32 6 0 10 6 10 14 0 17 35 30 51 20
8 -4 9 -3 5 4 -11 18 -41 14 -59 -6z"/>
<path d="M3340 1531 c0 -5 11 -8 25 -8 14 0 25 3 25 8 0 5 -11 9 -25 9 -14 0
-25 -4 -25 -9z"/>
<path d="M2858 1518 c9 -9 15 -9 24 0 9 9 7 12 -12 12 -19 0 -21 -3 -12 -12z"/>
<path d="M337 1509 c8 -8 16 -8 30 0 16 9 14 10 -11 11 -22 0 -27 -3 -19 -11z"/>
<path d="M908 1513 c7 -3 16 -2 19 1 4 3 -2 6 -13 5 -11 0 -14 -3 -6 -6z"/>
<path d="M2573 1514 c-8 -4 -2 -33 22 -99 19 -52 32 -101 29 -109 -3 -8 -56
-55 -119 -105 -62 -51 -119 -99 -127 -108 -7 -9 -56 -53 -108 -98 -52 -45
-176 -165 -275 -266 -99 -101 -209 -214 -245 -250 -36 -36 -92 -94 -124 -128
-52 -55 -61 -61 -67 -45 -7 18 -10 17 -13 -5 0 -5 -4 -13 -8 -17 -5 -4 -8 -14
-8 -21 0 -8 -36 -54 -81 -103 -45 -48 -79 -90 -77 -93 1 -3 -7 -16 -20 -29
-12 -14 -19 -28 -15 -31 3 -4 492 -7 1085 -7 l1078 0 0 415 c0 382 -1 415 -17
415 -26 0 -104 41 -97 51 3 5 0 9 -6 9 -11 0 -160 68 -170 78 -3 3 1 7 8 9 17
6 15 43 -2 43 -8 0 -18 -4 -21 -10 -8 -13 -42 -13 -50 0 -3 5 8 16 26 25 43
23 28 32 -19 11 l-38 -17 -76 35 c-42 20 -80 36 -84 36 -5 0 -20 10 -34 21
-23 19 -24 20 -4 16 12 -2 28 -1 35 4 11 7 11 9 -2 9 -9 0 -19 9 -22 20 -4 18
-9 19 -33 10 -23 -9 -31 -7 -51 11 -26 25 -31 52 -8 43 8 -4 15 -1 15 6 0 8
-8 10 -21 7 -15 -4 -27 4 -50 35 -16 23 -29 52 -29 65 0 12 -4 23 -8 23 -5 0
-14 16 -22 35 -8 19 -18 35 -22 35 -5 0 -6 5 -3 10 3 6 -1 18 -10 27 -13 12
-19 13 -24 4 -12 -19 -77 1 -73 22 2 10 2 17 0 16 -2 0 -8 -3 -15 -5z"/>
<path d="M3178 1513 c7 -3 16 -2 19 1 4 3 -2 6 -13 5 -11 0 -14 -3 -6 -6z"/>
<path d="M664 1499 c-2 -4 0 -10 5 -13 11 -7 41 3 41 14 0 10 -40 9 -46 -1z"/>
<path d="M2999 1497 c12 -12 66 -14 66 -2 0 5 -17 10 -38 10 -22 1 -33 -3 -28
-8z"/>
<path d="M0 1490 c0 -5 5 -10 11 -10 5 0 7 5 4 10 -3 6 -8 10 -11 10 -2 0 -4
-4 -4 -10z"/>
<path d="M270 1485 c0 -9 6 -12 15 -9 8 4 15 10 15 15 0 5 -7 9 -15 9 -8 0
-15 -7 -15 -15z"/>
<path d="M381 1458 c-13 -28 -7 -54 7 -32 4 6 17 14 28 18 12 4 28 14 37 24
14 16 13 17 -22 18 -32 2 -39 -2 -50 -28z"/>
<path d="M3465 1480 c-3 -5 -2 -10 4 -10 5 0 13 5 16 10 3 6 2 10 -4 10 -5 0
-13 -4 -16 -10z"/>
<path d="M560 1471 c0 -5 9 -12 19 -16 24 -7 73 4 65 16 -7 12 -84 12 -84 0z"/>
<path d="M935 1470 c3 -5 11 -10 16 -10 6 0 7 5 4 10 -3 6 -11 10 -16 10 -6 0
-7 -4 -4 -10z"/>
<path d="M2810 1462 c0 -5 7 -13 16 -16 10 -4 14 -1 12 6 -5 15 -28 23 -28 10z"/>
<path d="M2903 1444 c-10 -22 -9 -23 21 -17 38 7 40 8 29 25 -13 21 -38 17
-50 -8z"/>
<path d="M3236 1439 c-16 -16 -17 -19 -4 -19 18 0 43 26 31 33 -4 2 -17 -4
-27 -14z"/>
<path d="M3335 1450 c-3 -5 3 -10 14 -10 12 0 21 5 21 10 0 6 -6 10 -14 10 -8
0 -18 -4 -21 -10z"/>
<path d="M515 1440 c-3 -5 3 -10 14 -10 11 0 23 5 26 10 3 6 -3 10 -14 10 -11
0 -23 -4 -26 -10z"/>
<path d="M630 1440 c0 -5 5 -10 11 -10 5 0 7 5 4 10 -3 6 -8 10 -11 10 -2 0
-4 -4 -4 -10z"/>
<path d="M2746 1443 c-11 -11 -6 -23 9 -23 8 0 15 4 15 9 0 13 -16 22 -24 14z"/>
<path d="M3271 1423 c-9 -10 -10 -18 -2 -26 7 -7 12 -6 17 6 9 25 1 37 -15 20z"/>
<path d="M765 1420 c-3 -5 -1 -10 5 -10 6 0 8 -5 4 -12 -5 -7 -2 -9 8 -5 9 3
21 0 27 -6 14 -14 14 -2 1 24 -11 20 -35 25 -45 9z"/>
<path d="M855 1410 c-3 -4 4 -10 15 -13 11 -3 22 -2 25 3 3 4 -4 10 -15 13
-11 3 -22 2 -25 -3z"/>
<path d="M2980 1407 c-18 -13 -15 -47 3 -47 9 0 9 -2 0 -8 -18 -11 1 -34 21
-26 14 5 15 9 4 15 -10 7 -8 9 7 9 17 1 15 3 -8 16 -23 13 -26 18 -16 30 15
19 8 26 -11 11z"/>
<path d="M3045 1410 c-3 -5 1 -10 10 -10 9 0 13 5 10 10 -3 6 -8 10 -10 10 -2
0 -7 -4 -10 -10z"/>
<path d="M3153 1399 c14 -8 22 -8 30 0 8 8 3 11 -18 11 -26 -1 -28 -2 -12 -11z"/>
<path d="M285 1390 c-19 -8 -19 -9 3 -9 12 -1 22 4 22 9 0 6 -1 10 -2 9 -2 0
-12 -4 -23 -9z"/>
<path d="M955 1390 c3 -5 8 -10 11 -10 2 0 4 5 4 10 0 6 -5 10 -11 10 -5 0 -7
-4 -4 -10z"/>
<path d="M3415 1390 c-3 -5 1 -10 10 -10 9 0 13 5 10 10 -3 6 -8 10 -10 10 -2
0 -7 -4 -10 -10z"/>
<path d="M456 1381 c-6 -10 51 -8 61 3 3 3 -8 6 -25 6 -17 0 -33 -4 -36 -9z"/>
<path d="M860 1376 c0 -15 24 -28 34 -19 5 6 -18 33 -28 33 -3 0 -6 -6 -6 -14z"/>
<path d="M2780 1380 c0 -5 7 -10 15 -10 8 0 15 5 15 10 0 6 -7 10 -15 10 -8 0
-15 -4 -15 -10z"/>
<path d="M2870 1379 c0 -5 5 -7 10 -4 6 3 10 8 10 11 0 2 -4 4 -10 4 -5 0 -10
-5 -10 -11z"/>
<path d="M3465 1380 c3 -5 11 -10 16 -10 6 0 7 5 4 10 -3 6 -11 10 -16 10 -6
0 -7 -4 -4 -10z"/>
<path d="M3193 1363 c9 -2 23 -2 30 0 6 3 -1 5 -18 5 -16 0 -22 -2 -12 -5z"/>
<path d="M808 1353 c6 -2 10 -9 6 -14 -3 -5 1 -9 10 -9 8 0 17 -6 19 -12 3 -8
6 -6 6 5 1 9 -4 17 -10 17 -5 0 -7 5 -4 10 3 6 -4 10 -17 9 -13 0 -17 -3 -10
-6z"/>
<path d="M3100 1350 c8 -5 26 -9 40 -9 l25 1 -25 8 c-14 4 -32 8 -40 9 -13 1
-13 0 0 -9z"/>
<path d="M3410 1356 c0 -2 7 -7 16 -10 8 -3 12 -2 9 4 -6 10 -25 14 -25 6z"/>
<path d="M240 1340 c0 -5 7 -10 16 -10 8 0 12 5 9 10 -3 6 -10 10 -16 10 -5 0
-9 -4 -9 -10z"/>
<path d="M435 1320 c-3 -5 -1 -10 4 -10 6 0 11 5 11 10 0 6 -2 10 -4 10 -3 0
-8 -4 -11 -10z"/>
<path d="M490 1322 c0 -13 42 -31 73 -30 15 0 27 4 27 8 0 11 -28 20 -44 14
-8 -3 -17 -1 -21 5 -7 13 -35 15 -35 3z"/>
<path d="M1901 1314 c0 -11 3 -14 6 -6 3 7 2 16 -1 19 -3 4 -6 -2 -5 -13z"/>
<path d="M3100 1323 c0 -15 41 -34 61 -28 27 9 24 25 -5 25 -13 0 -31 3 -40 6
-9 3 -16 2 -16 -3z"/>
<path d="M72 1304 c-7 -8 -8 -14 -3 -14 10 0 25 19 20 25 -2 1 -10 -3 -17 -11z"/>
<path d="M2928 1313 c7 -3 16 -2 19 1 4 3 -2 6 -13 5 -11 0 -14 -3 -6 -6z"/>
<path d="M255 1300 c-3 -5 2 -10 12 -10 11 0 25 -6 32 -12 11 -10 12 -10 7 -1
-11 20 -44 35 -51 23z"/>
<path d="M3003 1303 c-25 -5 -32 -23 -9 -23 8 0 21 -3 30 -6 11 -4 14 0 13 15
-1 12 -4 20 -7 20 -3 -1 -15 -4 -27 -6z"/>
<path d="M3078 1293 c7 -3 16 -2 19 1 4 3 -2 6 -13 5 -11 0 -14 -3 -6 -6z"/>
<path d="M127 1279 c7 -7 15 -10 18 -7 3 3 -2 9 -12 12 -14 6 -15 5 -6 -5z"/>
<path d="M2870 1280 c-11 -7 -12 -12 -4 -20 8 -8 13 -6 17 9 3 12 4 21 4 21
-1 0 -9 -5 -17 -10z"/>
<path d="M3310 1280 c0 -5 12 -10 28 -10 21 0 24 2 12 10 -20 13 -40 13 -40 0z"/>
<path d="M475 1270 c-18 -8 -18 -9 6 -9 14 -1 30 -6 37 -13 7 -7 12 -8 12 -2
0 11 -21 34 -29 33 -4 0 -15 -4 -26 -9z"/>
<path d="M704 1258 c6 -10 18 -18 26 -17 9 0 11 2 3 5 -7 3 -10 11 -7 18 2 6
-4 12 -14 12 -16 0 -18 -3 -8 -18z"/>
<path d="M740 1270 c0 -5 12 -10 26 -10 14 0 23 4 19 10 -3 6 -15 10 -26 10
-10 0 -19 -4 -19 -10z"/>
<path d="M980 1260 c0 -5 7 -10 16 -10 8 0 12 5 9 10 -3 6 -10 10 -16 10 -5 0
-9 -4 -9 -10z"/>
<path d="M3237 1264 c-11 -11 3 -24 18 -18 8 4 12 10 9 15 -6 11 -18 12 -27 3z"/>
<path d="M326 1245 c4 -8 12 -15 20 -15 20 0 17 7 -6 20 -16 9 -18 8 -14 -5z"/>
<path d="M3491 1243 c-1 -7 -9 -13 -18 -13 -13 0 -14 -3 -5 -12 15 -15 37 3
29 24 -4 9 -6 10 -6 1z"/>
<path d="M808 1218 c17 -8 26 -8 34 0 9 9 4 12 -22 11 -33 0 -34 -1 -12 -11z"/>
<path d="M2870 1210 c0 -5 5 -10 11 -10 5 0 7 5 4 10 -3 6 -8 10 -11 10 -2 0
-4 -4 -4 -10z"/>
<path d="M2970 1213 c1 -20 18 -33 35 -27 17 7 17 8 -1 21 -20 14 -34 17 -34
6z"/>
<path d="M3128 1213 c7 -3 16 -2 19 1 4 3 -2 6 -13 5 -11 0 -14 -3 -6 -6z"/>
<path d="M160 1199 c0 -5 5 -7 10 -4 6 3 10 8 10 11 0 2 -4 4 -10 4 -5 0 -10
-5 -10 -11z"/>
<path d="M630 1198 c-21 -9 -22 -12 -8 -15 10 -3 25 3 34 11 18 18 10 19 -26
4z"/>
<path d="M965 1200 c3 -5 10 -10 16 -10 5 0 9 5 9 10 0 6 -7 10 -16 10 -8 0
-12 -4 -9 -10z"/>
<path d="M720 1190 c0 -5 5 -10 11 -10 5 0 7 5 4 10 -3 6 -8 10 -11 10 -2 0
-4 -4 -4 -10z"/>
<path d="M3425 1190 c3 -5 13 -10 21 -10 8 0 12 5 9 10 -3 6 -13 10 -21 10 -8
0 -12 -4 -9 -10z"/>
<path d="M347 1175 c-5 -10 0 -15 14 -15 12 0 19 5 17 12 -6 18 -25 20 -31 3z"/>
<path d="M490 1180 c0 -5 10 -10 23 -10 18 0 19 2 7 10 -19 13 -30 13 -30 0z"/>
<path d="M260 1170 c-13 -8 -12 -10 3 -10 9 0 17 5 17 10 0 12 -1 12 -20 0z"/>
<path d="M550 1160 c0 -25 21 -26 36 -2 10 15 8 18 -12 20 -18 1 -24 -3 -24
-18z"/>
<path d="M870 1169 c0 -5 5 -7 10 -4 6 3 10 8 10 11 0 2 -4 4 -10 4 -5 0 -10
-5 -10 -11z"/>
<path d="M920 1163 c-13 -15 -12 -16 4 -10 10 4 20 7 22 7 2 0 4 5 4 10 0 15
-13 12 -30 -7z"/>
<path d="M3170 1169 c0 -6 -7 -8 -16 -5 -10 4 -14 1 -12 -6 7 -20 23 -19 36 2
7 12 8 20 2 20 -5 0 -10 -5 -10 -11z"/>
<path d="M3440 1161 c0 -5 7 -12 16 -15 24 -9 28 -7 14 9 -14 17 -30 20 -30 6z"/>
<path d="M600 1156 c0 -2 16 -6 35 -8 19 -2 35 0 35 4 0 4 -16 8 -35 8 -19 0
-35 -2 -35 -4z"/>
<path d="M704 1149 c-6 -10 2 -12 30 -9 10 1 15 -3 12 -8 -3 -6 1 -9 9 -8 9 1
16 6 16 12 0 12 -60 24 -67 13z"/>
<path d="M460 1139 c0 -5 5 -7 10 -4 6 3 10 8 10 11 0 2 -4 4 -10 4 -5 0 -10
-5 -10 -11z"/>
<path d="M797 1136 c-6 -15 -1 -14 63 7 8 3 -1 6 -21 6 -23 1 -39 -4 -42 -13z"/>
<path d="M1088 1143 c7 -3 16 -2 19 1 4 3 -2 6 -13 5 -11 0 -14 -3 -6 -6z"/>
<path d="M3395 1140 c28 -12 47 -12 40 0 -3 6 -18 10 -33 9 -24 0 -25 -1 -7
-9z"/>
<path d="M10 1120 c-20 -12 -10 -19 14 -10 11 3 15 9 10 13 -6 3 -16 2 -24 -3z"/>
<path d="M227 1119 c7 -7 15 -10 18 -7 3 3 -2 9 -12 12 -14 6 -15 5 -6 -5z"/>
<path d="M3048 1123 c7 -3 16 -2 19 1 4 3 -2 6 -13 5 -11 0 -14 -3 -6 -6z"/>
<path d="M3240 1105 c-10 -12 -10 -15 3 -15 8 0 17 7 21 15 3 8 2 15 -3 15 -5
0 -14 -7 -21 -15z"/>
<path d="M502 1101 c2 -7 7 -12 11 -12 12 1 9 15 -3 20 -7 2 -11 -2 -8 -8z"/>
<path d="M610 1098 c0 -4 4 -8 9 -8 6 0 12 4 15 8 3 5 -1 9 -9 9 -8 0 -15 -4
-15 -9z"/>
<path d="M3182 1101 c-11 -6 -9 -9 6 -13 15 -4 19 -2 15 8 -6 16 -4 16 -21 5z"/>
<path d="M3427 1089 c-15 -9 -15 -12 -3 -25 20 -20 33 -18 31 6 -2 27 -7 30
-28 19z"/>
<path d="M955 1080 c3 -5 13 -10 21 -10 8 0 14 5 14 10 0 6 -9 10 -21 10 -11
0 -17 -4 -14 -10z"/>
<path d="M3236 1075 l-30 -13 53 -11 c29 -6 62 -16 73 -22 14 -8 23 -8 31 0 7
7 -3 15 -32 27 -22 9 -41 20 -41 25 0 12 -19 10 -54 -6z"/>
<path d="M900 1058 c1 -22 27 -51 35 -38 5 8 11 8 21 -1 19 -15 18 1 -2 29
-16 23 -54 30 -54 10z"/>
<path d="M240 1047 c0 -24 26 -51 43 -44 15 5 14 10 -7 32 -26 28 -36 31 -36
12z"/>
<path d="M300 1036 c0 -2 7 -7 16 -10 8 -3 12 -2 9 4 -6 10 -25 14 -25 6z"/>
<path d="M850 1018 c-21 -9 -22 -12 -7 -15 23 -6 47 3 47 17 0 12 -8 12 -40
-2z"/>
<path d="M1010 1024 c0 -13 30 -34 47 -33 15 0 14 2 -4 9 -13 5 -23 14 -23 20
0 5 -4 10 -10 10 -5 0 -10 -3 -10 -6z"/>
<path d="M500 1005 c0 -9 9 -15 23 -14 12 0 16 3 9 6 -6 2 -10 9 -6 14 3 5 -2
9 -10 9 -9 0 -16 -7 -16 -15z"/>
<path d="M338 1003 c7 -3 16 -2 19 1 4 3 -2 6 -13 5 -11 0 -14 -3 -6 -6z"/>
<path d="M3470 995 c0 -9 5 -15 11 -13 6 2 11 8 11 13 0 5 -5 11 -11 13 -6 2
-11 -4 -11 -13z"/>
<path d="M112 991 c-11 -7 -11 -9 0 -14 9 -3 15 1 15 9 0 8 -1 14 -1 14 -1 0
-7 -4 -14 -9z"/>
<path d="M740 990 c0 -5 7 -10 16 -10 8 0 12 5 9 10 -3 6 -10 10 -16 10 -5 0
-9 -4 -9 -10z"/>
<path d="M3425 990 c3 -5 13 -10 21 -10 8 0 12 5 9 10 -3 6 -13 10 -21 10 -8
0 -12 -4 -9 -10z"/>
<path d="M835 980 c-18 -8 -17 -9 7 -9 15 -1 30 4 33 9 7 12 -12 12 -40 0z"/>
<path d="M950 975 c0 -9 5 -13 11 -9 6 3 15 1 19 -6 4 -7 13 -11 19 -9 7 3 -2
12 -19 22 -27 16 -30 16 -30 2z"/>
<path d="M436 962 c6 -4 13 -15 17 -24 3 -10 16 -18 27 -18 25 0 27 17 3 23
-17 4 -17 5 0 6 34 2 16 21 -20 21 -21 0 -33 -4 -27 -8z"/>
<path d="M713 962 c-16 -10 -3 -28 27 -35 30 -7 46 -5 42 7 -1 4 14 5 35 2 35
-7 36 -6 18 7 -24 17 -105 29 -122 19z"/>
<path d="M870 960 c0 -5 5 -10 10 -10 6 0 10 5 10 10 0 6 -4 10 -10 10 -5 0
-10 -4 -10 -10z"/>
<path d="M607 948 c7 -8 10 -18 6 -21 -6 -7 -1 -8 29 -11 6 -1 12 7 14 17 1 9
-4 17 -11 17 -7 0 -22 3 -32 7 -15 6 -16 4 -6 -9z"/>
<path d="M95 940 c-3 -5 -1 -10 4 -10 6 0 11 5 11 10 0 6 -2 10 -4 10 -3 0 -8
-4 -11 -10z"/>
<path d="M266 941 c-4 -5 3 -7 14 -4 23 6 26 13 6 13 -8 0 -17 -4 -20 -9z"/>
<path d="M525 940 c-3 -6 1 -13 10 -16 21 -9 26 -2 10 13 -9 8 -16 9 -20 3z"/>
<path d="M3344 925 c22 -17 36 -19 36 -6 0 10 -24 21 -43 21 -7 0 -3 -7 7 -15z"/>
<path d="M290 926 c0 -2 7 -6 15 -10 8 -3 15 -1 15 4 0 6 -7 10 -15 10 -8 0
-15 -2 -15 -4z"/>
<path d="M160 910 c0 -5 5 -10 11 -10 5 0 7 5 4 10 -3 6 -8 10 -11 10 -2 0 -4
-4 -4 -10z"/>
<path d="M606 896 c7 -18 78 -23 89 -6 3 6 -4 9 -17 9 -13 -1 -35 2 -51 6 -23
6 -26 5 -21 -9z"/>
<path d="M510 890 c-11 -7 -7 -10 18 -10 17 0 32 5 32 10 0 13 -30 13 -50 0z"/>
<path d="M305 881 c-3 -5 -1 -12 4 -15 5 -3 11 1 15 9 6 16 -9 21 -19 6z"/>
<path d="M3444 873 c3 -21 25 -27 46 -13 13 9 13 11 0 20 -24 16 -49 12 -46
-7z"/>
<path d="M713 860 c-30 -12 -29 -30 1 -30 25 0 51 22 39 33 -8 9 -12 8 -40 -3z"/>
<path d="M837 859 c7 -7 15 -10 18 -7 3 3 -2 9 -12 12 -14 6 -15 5 -6 -5z"/>
<path d="M260 850 c0 -5 5 -10 10 -10 6 0 10 5 10 10 0 6 -4 10 -10 10 -5 0
-10 -4 -10 -10z"/>
<path d="M580 850 c0 -5 5 -10 11 -10 5 0 7 5 4 10 -3 6 -8 10 -11 10 -2 0 -4
-4 -4 -10z"/>
<path d="M780 850 c0 -4 11 -10 25 -12 13 -3 22 -2 20 2 -7 11 -45 20 -45 10z"/>
<path d="M340 837 c0 -8 7 -18 16 -21 11 -4 14 -1 12 11 -4 21 -28 30 -28 10z"/>
<path d="M535 817 c-14 -11 -15 -16 -5 -22 9 -5 15 -4 18 3 2 7 8 10 13 7 5
-4 6 1 3 9 -7 19 -6 19 -29 3z"/>
<path d="M780 810 c-8 -5 -12 -12 -9 -15 8 -8 39 5 39 16 0 11 -11 11 -30 -1z"/>
<path d="M323 803 c-18 -6 -16 -23 2 -23 7 0 18 -8 24 -17 5 -10 13 -14 18
-10 4 5 1 14 -8 20 -9 7 -18 17 -20 23 -2 6 -10 9 -16 7z"/>
<path d="M598 793 c-43 -5 -52 -19 -10 -17 15 0 45 2 67 3 30 1 36 4 25 11 -8
5 -22 9 -30 8 -8 -1 -32 -3 -52 -5z"/>
<path d="M398 773 c7 -3 16 -2 19 1 4 3 -2 6 -13 5 -11 0 -14 -3 -6 -6z"/>
<path d="M456 762 c-17 -4 -16 -5 5 -16 24 -13 49 -11 49 4 0 10 -30 17 -54
12z"/>
<path d="M735 760 c3 -5 11 -10 16 -10 6 0 7 5 4 10 -3 6 -11 10 -16 10 -6 0
-7 -4 -4 -10z"/>
<path d="M560 745 c0 -9 9 -15 23 -14 12 0 16 3 9 6 -6 2 -10 9 -6 14 3 5 -2
9 -10 9 -9 0 -16 -7 -16 -15z"/>
<path d="M780 730 c-8 -5 -10 -10 -5 -10 6 0 17 5 25 10 8 5 11 10 5 10 -5 0
-17 -5 -25 -10z"/>
<path d="M0 711 c0 -14 5 -19 15 -14 17 6 15 25 -3 31 -7 2 -12 -5 -12 -17z"/>
<path d="M105 720 c3 -5 8 -10 11 -10 2 0 4 5 4 10 0 6 -5 10 -11 10 -5 0 -7
-4 -4 -10z"/>
<path d="M188 707 c16 -7 26 -7 34 1 8 8 2 10 -23 10 -31 -1 -32 -2 -11 -11z"/>
<path d="M490 640 c-11 -7 -11 -10 -2 -10 7 0 11 -4 8 -9 -3 -5 1 -12 10 -15
24 -9 26 -8 19 14 -6 20 9 28 20 10 3 -5 16 -10 28 -10 21 1 21 1 -3 15 -29
17 -59 19 -80 5z"/>
<path d="M180 620 c-12 -8 -11 -10 8 -10 12 0 22 5 22 10 0 13 -11 13 -30 0z"/>
<path d="M710 606 c0 -2 7 -9 15 -16 13 -11 14 -10 9 4 -5 14 -24 23 -24 12z"/>
<path d="M239 587 c-1 -7 -1 -14 -1 -17 0 -5 -29 -9 -81 -12 -27 -1 -27 -1 -6
-16 15 -10 24 -11 32 -3 14 14 40 15 32 1 -10 -16 11 -12 25 5 7 8 19 15 26
15 8 0 14 6 14 14 0 17 -40 29 -41 13z"/>
<path d="M394 578 c-3 -4 1 -8 8 -9 7 0 0 -5 -16 -9 -16 -5 -33 -7 -38 -4 -4
3 -8 0 -8 -5 0 -16 40 -12 85 9 22 10 38 19 35 20 -18 6 -62 4 -66 -2z"/>
<path d="M661 581 c-10 -7 -7 -9 12 -8 15 1 27 5 27 10 0 10 -22 9 -39 -2z"/>
<path d="M1305 549 c-12 -19 5 -23 22 -6 16 16 16 17 1 17 -9 0 -20 -5 -23
-11z"/>
<path d="M1650 551 c0 -5 -17 -26 -38 -47 -27 -27 -41 -51 -45 -78 -3 -22 -12
-43 -19 -48 -11 -6 -10 -10 1 -17 11 -7 10 -11 -5 -20 -18 -10 -18 -10 2 -11
21 0 33 20 49 80 8 28 60 80 81 80 17 0 17 10 4 44 -9 25 -30 36 -30 17z"/>
<path d="M470 539 c0 -15 21 -20 51 -14 17 4 28 9 25 12 -9 9 -76 11 -76 2z"/>
<path d="M87 526 c-4 -10 -1 -13 9 -9 15 6 19 23 5 23 -5 0 -11 -7 -14 -14z"/>
<path d="M1475 529 c-11 -17 1 -21 15 -4 8 9 8 15 2 15 -6 0 -14 -5 -17 -11z"/>
<path d="M658 513 c7 -3 16 -2 19 1 4 3 -2 6 -13 5 -11 0 -14 -3 -6 -6z"/>
<path d="M125 500 c11 -5 27 -9 35 -9 9 0 8 4 -5 9 -11 5 -27 9 -35 9 -9 0 -8
-4 5 -9z"/>
<path d="M295 490 c-3 -5 -1 -10 4 -10 6 0 11 5 11 10 0 6 -2 10 -4 10 -3 0
-8 -4 -11 -10z"/>
<path d="M327 489 c7 -7 15 -10 18 -7 3 3 -2 9 -12 12 -14 6 -15 5 -6 -5z"/>
<path d="M558 493 c7 -3 16 -2 19 1 4 3 -2 6 -13 5 -11 0 -14 -3 -6 -6z"/>
<path d="M585 470 c3 -5 8 -10 11 -10 2 0 4 5 4 10 0 6 -5 10 -11 10 -5 0 -7
-4 -4 -10z"/>
<path d="M651 455 c13 -13 28 -25 32 -25 5 0 1 7 -7 16 -9 8 -16 20 -16 25 0
5 -7 9 -16 9 -13 0 -11 -5 7 -25z"/>
<path d="M1364 444 c-18 -14 -18 -15 4 -4 12 6 22 13 22 15 0 8 -5 6 -26 -11z"/>
<path d="M184 424 c3 -8 6 -18 6 -20 0 -3 5 -2 10 1 15 9 12 22 -6 29 -12 5
-15 2 -10 -10z"/>
<path d="M338 418 c22 -23 36 -21 27 3 -3 8 -15 16 -27 16 l-21 2 21 -21z"/>
<path d="M635 430 c-3 -5 -1 -10 4 -10 6 0 11 5 11 10 0 6 -2 10 -4 10 -3 0
-8 -4 -11 -10z"/>
<path d="M1325 420 c-3 -5 -1 -10 4 -10 6 0 11 5 11 10 0 6 -2 10 -4 10 -3 0
-8 -4 -11 -10z"/>
<path d="M390 410 c0 -5 9 -10 21 -10 11 0 17 5 14 10 -3 6 -13 10 -21 10 -8
0 -14 -4 -14 -10z"/>
<path d="M315 380 c-18 -8 -17 -9 8 -9 15 -1 27 4 27 9 0 12 -8 12 -35 0z"/>
<path d="M602 343 c-37 -5 -39 -26 -3 -31 15 -2 21 0 17 7 -4 6 0 11 8 11 9 0
16 5 16 10 0 6 -1 9 -2 8 -2 0 -18 -3 -36 -5z"/>
<path d="M410 330 c0 -5 7 -10 15 -10 8 0 15 5 15 10 0 6 -7 10 -15 10 -8 0
-15 -4 -15 -10z"/>
<path d="M195 310 c-3 -5 -1 -10 4 -10 6 0 11 5 11 10 0 6 -2 10 -4 10 -3 0
-8 -4 -11 -10z"/>
<path d="M421 274 c-36 -15 -41 -27 -8 -19 12 4 36 1 51 -5 37 -14 40 -10 11
16 -21 19 -26 20 -54 8z"/>
<path d="M160 259 c0 -5 5 -7 10 -4 6 3 10 8 10 11 0 2 -4 4 -10 4 -5 0 -10
-5 -10 -11z"/>
<path d="M0 235 c0 -8 2 -15 4 -15 2 0 6 7 10 15 3 8 1 15 -4 15 -6 0 -10 -7
-10 -15z"/>
<path d="M165 220 c3 -5 13 -10 21 -10 8 0 12 5 9 10 -3 6 -13 10 -21 10 -8 0
-12 -4 -9 -10z"/>
<path d="M1304 168 c-29 -31 -29 -31 -2 -12 15 10 29 25 32 32 8 18 2 15 -30
-20z"/>
<path d="M244 165 c21 -16 32 -13 21 4 -3 6 -14 11 -23 11 -15 -1 -15 -2 2
-15z"/>
<path d="M80 149 c0 -5 5 -7 10 -4 6 3 10 8 10 11 0 2 -4 4 -10 4 -5 0 -10 -5
-10 -11z"/>
<path d="M470 150 c19 -13 30 -13 30 0 0 6 -10 10 -22 10 -19 0 -20 -2 -8 -10z"/>
<path d="M420 130 c0 -5 5 -10 10 -10 6 0 10 5 10 10 0 6 -4 10 -10 10 -5 0
-10 -4 -10 -10z"/>
<path d="M180 100 c0 -5 5 -10 11 -10 5 0 7 5 4 10 -3 6 -8 10 -11 10 -2 0 -4
-4 -4 -10z"/>
<path d="M260 95 c0 -10 7 -15 18 -13 21 4 19 22 -2 26 -10 2 -16 -3 -16 -13z"/>
<path d="M145 40 c3 -5 8 -10 11 -10 2 0 4 5 4 10 0 6 -5 10 -11 10 -5 0 -7
-4 -4 -10z"/>
<path d="M435 30 c-16 -7 -17 -9 -3 -9 9 -1 20 4 23 9 7 11 7 11 -20 0z"/>
<path d="M530 30 c0 -5 5 -10 10 -10 6 0 10 5 10 10 0 6 -4 10 -10 10 -5 0
-10 -4 -10 -10z"/>
</g>
</svg>
