<svg xmlns="http://www.w3.org/2000/svg" viewBox="0 0 435.98 107.54"><defs><style>.cls-1{fill:#5a0866;stroke:#5a0866;stroke-width:1.04px;}.cls-1,.cls-2{stroke-miterlimit:10;}.cls-2{fill:#074f68;stroke:#074f68;stroke-width:1.02px;}</style></defs><title>Asset 1</title><g id="Layer_2" data-name="Layer 2"><g id="Layer_1-2" data-name="Layer 1"><path class="cls-1" d="M106,41.8H102.2L99.12,30.85H86.8L83.9,41.8H80.11l11.15-39h3.53ZM98,26.74,93.45,10.11A20.43,20.43,0,0,1,93,7.49h-.08a18.78,18.78,0,0,1-.47,2.61L87.93,26.74Z"/><path class="cls-1" d="M127.52,41.8h-3.32V37.06h-.08q-2.31,5.39-7.13,5.39a7.1,7.1,0,0,1-6.25-3.74q-2.34-3.74-2.34-10.2,0-6.92,2.59-11.08t6.91-4.17q4.28,0,6.22,4.52h.08V.52h3.32Zm-3.32-12.61V25.08a9.63,9.63,0,0,0-1.66-5.72A5,5,0,0,0,118.31,17a5.33,5.33,0,0,0-4.78,3,16.5,16.5,0,0,0-1.74,8.28,14.77,14.77,0,0,0,1.67,7.61,5.06,5.06,0,0,0,4.49,2.79,5.19,5.19,0,0,0,4.51-2.7A12.36,12.36,0,0,0,124.19,29.19Z"/><path class="cls-1" d="M145.07,18.44a3.34,3.34,0,0,0-2.51-.9q-2.13,0-3.56,2.7a15.83,15.83,0,0,0-1.43,7.35V41.8h-3.32V13.92h3.32v5.74h.08a10.55,10.55,0,0,1,2.17-4.59,4.3,4.3,0,0,1,3.26-1.65,4.17,4.17,0,0,1,2,.38Z"/><path class="cls-1" d="M150.38,6.84A1.87,1.87,0,0,1,148.86,6,3.3,3.3,0,0,1,148.23,4a3.36,3.36,0,0,1,.63-2.08A1.86,1.86,0,0,1,150.38,1a1.9,1.9,0,0,1,1.55.83A3.31,3.31,0,0,1,152.57,4a3.28,3.28,0,0,1-.64,2A1.89,1.89,0,0,1,150.38,6.84Zm1.62,35h-3.32V13.92H152Z"/><path class="cls-1" d="M173.58,41.8h-3.32V37.44h-.08q-2.17,5-6.38,5a5.86,5.86,0,0,1-4.85-2.21,9.13,9.13,0,0,1-1.75-5.85q0-7.81,6.85-9.09l6.22-1.17Q170.26,17,166,17a8.89,8.89,0,0,0-6.77,3.43V15.88a10.54,10.54,0,0,1,7.05-2.61q7.32,0,7.32,10.4Zm-3.32-14.1-5,.93a6.86,6.86,0,0,0-3.48,1.54q-1.18,1.1-1.18,3.91a5,5,0,0,0,1.08,3.34,3.58,3.58,0,0,0,2.89,1.29,4.81,4.81,0,0,0,4.08-2.33,10.13,10.13,0,0,0,1.61-5.89Z"/><path class="cls-1" d="M197.07,41.8h-3.32V25.9q0-8.88-4.82-8.88a4.8,4.8,0,0,0-4.12,2.52,11.48,11.48,0,0,0-1.63,6.36V41.8h-3.32V13.92h3.32v4.63h.08q2.35-5.28,6.81-5.28a5.75,5.75,0,0,1,5.21,3q1.81,3,1.8,8.54Z"/><path class="cls-1" d="M236,41.8h-4.05l-4.86-10.95a25.47,25.47,0,0,0-1.3-2.6,9.22,9.22,0,0,0-1.29-1.76,4.22,4.22,0,0,0-1.42-1,4.46,4.46,0,0,0-1.71-.31h-2.8V41.8h-3.41v-39h8.67a9.45,9.45,0,0,1,3.52.64,7.44,7.44,0,0,1,2.8,1.95A9.24,9.24,0,0,1,232,8.59a14.05,14.05,0,0,1,.67,4.56,14.46,14.46,0,0,1-.46,3.74,11,11,0,0,1-1.3,3,9,9,0,0,1-2,2.27,9.08,9.08,0,0,1-2.67,1.46v.11a6.07,6.07,0,0,1,1.27,1,8.46,8.46,0,0,1,1,1.32,18,18,0,0,1,1,1.73q.48,1,1.06,2.25ZM218.56,6.89V21.05h4.62a5.34,5.34,0,0,0,4.24-2,7.11,7.11,0,0,0,1.24-2.37,10.34,10.34,0,0,0,.45-3.14,7.26,7.26,0,0,0-1.51-4.89,5.44,5.44,0,0,0-4.37-1.76Z"/><path class="cls-1" d="M248.21,42.45a8.55,8.55,0,0,1-7.35-3.91q-2.75-3.91-2.75-10.36,0-7,2.86-11a9,9,0,0,1,7.72-3.95,8.28,8.28,0,0,1,7.24,3.84q2.61,3.84,2.6,10.65t-2.81,10.69A8.75,8.75,0,0,1,248.21,42.45ZM248.45,17a5.74,5.74,0,0,0-5.07,2.93q-1.87,2.93-1.86,8.07a14.06,14.06,0,0,0,1.88,7.81,5.79,5.79,0,0,0,5,2.86,5.5,5.5,0,0,0,5-2.8q1.73-2.8,1.73-8t-1.73-8.06A5.49,5.49,0,0,0,248.45,17Z"/><path class="cls-1" d="M262.6,40.79V36a8.34,8.34,0,0,0,6,2.7q4.38,0,4.38-3.92a4.33,4.33,0,0,0-.37-1.89,4.66,4.66,0,0,0-1-1.37,7.49,7.49,0,0,0-1.5-1.08q-.86-.48-1.86-1A21.51,21.51,0,0,1,265.79,28,7.85,7.85,0,0,1,264,26.26,6.75,6.75,0,0,1,263,24.13a9.89,9.89,0,0,1-.36-2.8,8.48,8.48,0,0,1,.67-3.47,7.39,7.39,0,0,1,4.33-4.07,8.59,8.59,0,0,1,2.95-.52,9.33,9.33,0,0,1,4.82,1.25V19a7.75,7.75,0,0,0-5.27-2,4.69,4.69,0,0,0-1.68.29,3.76,3.76,0,0,0-1.29.8,3.54,3.54,0,0,0-.83,1.24,4.18,4.18,0,0,0-.29,1.59,4.93,4.93,0,0,0,.29,1.82,3.88,3.88,0,0,0,.86,1.31,6.38,6.38,0,0,0,1.38,1q.81.46,1.84,1a23,23,0,0,1,2.47,1.46,8.9,8.9,0,0,1,1.86,1.69,6.85,6.85,0,0,1,1.19,2.16,9.1,9.1,0,0,1,.42,2.91,8.77,8.77,0,0,1-.68,3.59,7.3,7.3,0,0,1-1.81,2.53,7.39,7.39,0,0,1-2.61,1.5,9.8,9.8,0,0,1-3.1.49A9.37,9.37,0,0,1,262.6,40.79Z"/><path class="cls-1" d="M280.21,40.79V36a8.34,8.34,0,0,0,6,2.7q4.38,0,4.38-3.92a4.33,4.33,0,0,0-.37-1.89,4.66,4.66,0,0,0-1-1.37,7.49,7.49,0,0,0-1.5-1.08q-.86-.48-1.86-1A21.51,21.51,0,0,1,283.4,28a7.85,7.85,0,0,1-1.74-1.69,6.75,6.75,0,0,1-1.05-2.14,9.89,9.89,0,0,1-.36-2.8,8.48,8.48,0,0,1,.67-3.47,7.39,7.39,0,0,1,4.33-4.07,8.59,8.59,0,0,1,2.95-.52A9.33,9.33,0,0,1,293,14.52V19a7.75,7.75,0,0,0-5.27-2,4.69,4.69,0,0,0-1.68.29,3.76,3.76,0,0,0-1.29.8,3.54,3.54,0,0,0-.83,1.24,4.18,4.18,0,0,0-.29,1.59,4.93,4.93,0,0,0,.29,1.82,3.88,3.88,0,0,0,.86,1.31,6.38,6.38,0,0,0,1.38,1q.81.46,1.84,1a23,23,0,0,1,2.47,1.46,8.9,8.9,0,0,1,1.86,1.69,6.85,6.85,0,0,1,1.19,2.16,9.1,9.1,0,0,1,.42,2.91,8.77,8.77,0,0,1-.68,3.59,7.3,7.3,0,0,1-1.81,2.53,7.39,7.39,0,0,1-2.61,1.5,9.8,9.8,0,0,1-3.1.49A9.37,9.37,0,0,1,280.21,40.79Z"/><path class="cls-1" d="M300.78,6.84A1.87,1.87,0,0,1,299.26,6,3.3,3.3,0,0,1,298.63,4a3.36,3.36,0,0,1,.63-2.08A1.86,1.86,0,0,1,300.78,1a1.9,1.9,0,0,1,1.55.83A3.31,3.31,0,0,1,303,4a3.28,3.28,0,0,1-.64,2A1.89,1.89,0,0,1,300.78,6.84Zm1.62,35h-3.32V13.92h3.32Z"/><path class="cls-1" d="M326.36,41.8H323V25.9Q323,17,318.21,17a4.8,4.8,0,0,0-4.12,2.52,11.48,11.48,0,0,0-1.63,6.36V41.8h-3.32V13.92h3.32v4.63h.08q2.35-5.28,6.81-5.28a5.75,5.75,0,0,1,5.21,3q1.81,3,1.8,8.54Z"/><path class="cls-1" d="M341.3,42.45a8.55,8.55,0,0,1-7.35-3.91q-2.75-3.91-2.75-10.36,0-7,2.86-11a9,9,0,0,1,7.72-3.95A8.28,8.28,0,0,1,349,17.1q2.61,3.84,2.6,10.65t-2.81,10.69A8.75,8.75,0,0,1,341.3,42.45ZM341.54,17a5.74,5.74,0,0,0-5.07,2.93q-1.87,2.93-1.86,8.07a14.06,14.06,0,0,0,1.88,7.81,5.79,5.79,0,0,0,5,2.86,5.5,5.5,0,0,0,5-2.8q1.73-2.8,1.73-8t-1.73-8.06A5.49,5.49,0,0,0,341.54,17Z"/><path class="cls-2" d="M18.45,59H4.65V72.59H17.41v4.14H4.65v17.4H.51V54.84H18.45Z"/><path class="cls-2" d="M45,94.13H41V89.69h-.1q-2.51,5.1-7.79,5.1-9,0-9-11.94V66.07h4V82.13q0,8.88,6.11,8.88a5.94,5.94,0,0,0,4.87-2.42A10,10,0,0,0,41,82.24V66.07h4Z"/><path class="cls-2" d="M57.2,94.13h-4V52.59h4Z"/><path class="cls-2" d="M69.42,94.13h-4V52.59h4Z"/><path class="cls-2" d="M89.9,93.11V88.29A11.19,11.19,0,0,0,97.17,91q5.32,0,5.32-3.94a3.71,3.71,0,0,0-.46-1.9,4.83,4.83,0,0,0-1.23-1.38A9.25,9.25,0,0,0,99,82.69l-2.25-1a27.77,27.77,0,0,1-2.94-1.49,9,9,0,0,1-2.12-1.7,6.42,6.42,0,0,1-1.28-2.15,8.39,8.39,0,0,1-.43-2.82A7.28,7.28,0,0,1,90.76,70a7.74,7.74,0,0,1,2.17-2.55A9.66,9.66,0,0,1,96,65.93a12.45,12.45,0,0,1,3.59-.52,13.23,13.23,0,0,1,5.86,1.26v4.55a10.59,10.59,0,0,0-6.41-2,6.79,6.79,0,0,0-2,.29,4.79,4.79,0,0,0-1.56.81,3.63,3.63,0,0,0-1,1.25,3.58,3.58,0,0,0-.36,1.6A4.21,4.21,0,0,0,94.45,75a3.94,3.94,0,0,0,1,1.32,7.77,7.77,0,0,0,1.68,1q1,.47,2.24,1a29.71,29.71,0,0,1,3,1.46,10.36,10.36,0,0,1,2.27,1.7,6.66,6.66,0,0,1,1.44,2.18,7.72,7.72,0,0,1,.5,2.93,7.31,7.31,0,0,1-3,6.16,9.56,9.56,0,0,1-3.18,1.51,14.2,14.2,0,0,1-3.77.49A13.14,13.14,0,0,1,89.9,93.11Z"/><path class="cls-2" d="M124.54,93.85a7.15,7.15,0,0,1-3.77.88q-6.63,0-6.63-8.22V69.91h-4.34V66.07h4.34V59.22l4-1.45v8.3h6.36v3.84h-6.36V85.72a7.14,7.14,0,0,0,.86,4,3.27,3.27,0,0,0,2.86,1.2,4,4,0,0,0,2.64-.93Z"/><path class="cls-2" d="M148,94.13h-4V89.74h-.1q-2.64,5-7.76,5a7.79,7.79,0,0,1-5.9-2.22,8.14,8.14,0,0,1-2.13-5.89q0-7.86,8.33-9.15L144,76.35q0-7.15-5.2-7.15a11.73,11.73,0,0,0-8.23,3.45V68a14.48,14.48,0,0,1,8.58-2.63q8.89,0,8.89,10.46Zm-4-14.19-6.09.93a9.23,9.23,0,0,0-4.24,1.55q-1.43,1.11-1.43,3.93a4.51,4.51,0,0,0,1.32,3.36A4.78,4.78,0,0,0,137,91a6.19,6.19,0,0,0,5-2.34,8.93,8.93,0,0,0,2-5.93Z"/><path class="cls-2" d="M172.81,92.84a12.12,12.12,0,0,1-6.9,1.94,10.87,10.87,0,0,1-8.71-3.9,15.1,15.1,0,0,1-3.31-10.12q0-6.93,3.57-11.14A11.88,11.88,0,0,1,167,65.42a12.15,12.15,0,0,1,5.86,1.37v4.6a9.6,9.6,0,0,0-6-2.19,7.78,7.78,0,0,0-6.34,3.08,12.53,12.53,0,0,0-2.48,8.1,11.94,11.94,0,0,0,2.33,7.78A7.65,7.65,0,0,0,166.6,91a9.5,9.5,0,0,0,6.21-2.44Z"/><path class="cls-2" d="M199.86,94.13h-5.67L183.06,80.65H183V94.13h-4V52.59h4V78.92h.1l10.6-12.85h5.3l-11.7,13.53Z"/><path class="cls-2" d="M239.35,94.13h-4V89.36h-.1a9.19,9.19,0,0,1-8.67,5.43,9,9,0,0,1-7.6-3.77q-2.85-3.77-2.85-10.26,0-7,3.15-11.15a10,10,0,0,1,8.4-4.19A7.94,7.94,0,0,1,235.21,70h.1V52.59h4Zm-4-12.68V77.31a8.54,8.54,0,0,0-2-5.75,6.46,6.46,0,0,0-5.13-2.36,6.73,6.73,0,0,0-5.81,3q-2.12,3-2.12,8.33a12.83,12.83,0,0,0,2,7.66A6.4,6.4,0,0,0,227.72,91a6.62,6.62,0,0,0,5.48-2.71A10.83,10.83,0,0,0,235.31,81.44Z"/><path class="cls-2" d="M267.81,81.22H250q.1,4.68,2.27,7.23a7.41,7.41,0,0,0,6,2.55,11.65,11.65,0,0,0,7.83-3.12V92.1a13.59,13.59,0,0,1-8.8,2.68,10.17,10.17,0,0,1-8.4-3.82q-3.06-3.82-3.06-10.75,0-6.55,3.34-10.67a10.27,10.27,0,0,1,8.29-4.12A9.07,9.07,0,0,1,265.1,69q2.71,3.56,2.71,9.89Zm-4.14-3.81A9.84,9.84,0,0,0,262,71.36a5.5,5.5,0,0,0-4.62-2.16,6.22,6.22,0,0,0-4.85,2.27A10.85,10.85,0,0,0,250,77.41Z"/><path class="cls-2" d="M293.75,66.07,283.7,94.13h-4l-9.56-28.05h4.44L281,86.46a20,20,0,0,1,.89,3.92h.1a20.22,20.22,0,0,1,.79-3.81l6.7-20.49Z"/><path class="cls-2" d="M318.37,81.22H300.55q.1,4.68,2.27,7.23a7.41,7.41,0,0,0,6,2.55,11.65,11.65,0,0,0,7.83-3.12V92.1a13.59,13.59,0,0,1-8.8,2.68,10.17,10.17,0,0,1-8.4-3.82q-3.06-3.82-3.06-10.75,0-6.55,3.34-10.67A10.27,10.27,0,0,1,308,65.42,9.07,9.07,0,0,1,315.66,69q2.71,3.56,2.71,9.89Zm-4.14-3.81a9.84,9.84,0,0,0-1.69-6.05,5.5,5.5,0,0,0-4.62-2.16,6.22,6.22,0,0,0-4.85,2.27,10.85,10.85,0,0,0-2.46,5.94Z"/><path class="cls-2" d="M328.52,94.13h-4V52.59h4Z"/><path class="cls-2" d="M347.24,94.78a11.13,11.13,0,0,1-8.93-3.93Q335,86.92,335,80.43q0-7.07,3.47-11a11.84,11.84,0,0,1,9.39-4,10.76,10.76,0,0,1,8.81,3.86q3.17,3.86,3.17,10.71T356.4,90.74A11.37,11.37,0,0,1,347.24,94.78Zm.3-25.59a7.36,7.36,0,0,0-6.16,2.94q-2.27,2.95-2.27,8.12,0,5,2.29,7.86A7.44,7.44,0,0,0,347.54,91a7.06,7.06,0,0,0,6-2.82q2.11-2.82,2.11-8T353.56,72A7,7,0,0,0,347.54,69.2Z"/><path class="cls-2" d="M370.4,90.07h-.1v17h-4v-41h4V71h.1q3-5.59,8.72-5.59a8.88,8.88,0,0,1,7.61,3.77q2.73,3.77,2.73,10.1,0,7-3.08,11.27A9.87,9.87,0,0,1,378,94.78Q373.06,94.78,370.4,90.07Zm-.1-11.31v3.92a8.89,8.89,0,0,0,2,5.9A6.45,6.45,0,0,0,377.5,91a6.55,6.55,0,0,0,5.75-3.12q2.08-3.12,2.08-8.69a12.21,12.21,0,0,0-1.95-7.34,6.19,6.19,0,0,0-5.27-2.66,6.85,6.85,0,0,0-5.67,2.73A10.72,10.72,0,0,0,370.3,78.76Z"/><path class="cls-2" d="M416.21,81.22H398.39q.1,4.68,2.27,7.23a7.41,7.41,0,0,0,6,2.55,11.65,11.65,0,0,0,7.83-3.12V92.1a13.59,13.59,0,0,1-8.8,2.68,10.17,10.17,0,0,1-8.4-3.82q-3.06-3.82-3.06-10.75,0-6.55,3.34-10.67a10.27,10.27,0,0,1,8.29-4.12A9.07,9.07,0,0,1,413.5,69q2.71,3.56,2.71,9.89Zm-4.14-3.81a9.84,9.84,0,0,0-1.69-6.05,5.5,5.5,0,0,0-4.62-2.16,6.22,6.22,0,0,0-4.85,2.27,10.85,10.85,0,0,0-2.46,5.94Z"/><path class="cls-2" d="M435.47,70.62a4.59,4.59,0,0,0-3.06-.9,5.06,5.06,0,0,0-4.32,2.71,13.62,13.62,0,0,0-1.74,7.4v14.3h-4V66.07h4v5.78h.1a10,10,0,0,1,2.64-4.62,5.67,5.67,0,0,1,4-1.66,6,6,0,0,1,2.42.38Z"/></g></g></svg>