<?xml version="1.0" encoding="utf-8"?>
<!-- Generator: Adobe Illustrator 21.0.0, SVG Export Plug-In . SVG Version: 6.00 Build 0)  -->
<svg version="1.1" xmlns="http://www.w3.org/2000/svg" xmlns:xlink="http://www.w3.org/1999/xlink" x="0px" y="0px"
	 viewBox="0 0 792 612" style="enable-background:new 0 0 792 612;" xml:space="preserve">
<style type="text/css">
	.st0{display:none;}
	.st1{display:inline;}
	.st2{fill:#074F68;stroke:#074F68;stroke-width:3.1283;stroke-miterlimit:10;}
	.st3{fill:url(#SVGID_1_);}
	.st4{fill:#FCFCFC;}
	.st5{fill:#5A0866;stroke:#5A0866;stroke-width:1.0428;stroke-miterlimit:10;}
	.st6{fill:#074F68;stroke:#074F68;stroke-width:1.0229;stroke-miterlimit:10;}
</style>
<g id="Margen_de_protección" class="st0">
	<g class="st1">
		<rect x="155.6" y="0.8" class="st2" width="65.3" height="65.3"/>
		<rect x="629.1" y="0.8" class="st2" width="65.3" height="65.3"/>
		<rect x="629.1" y="548" class="st2" width="65.3" height="65.3"/>
		<rect x="155.6" y="548" class="st2" width="65.3" height="65.3"/>
	</g>
</g>
<g id="Layer_1">
	<g>
		
			<linearGradient id="SVGID_1_" gradientUnits="userSpaceOnUse" x1="521.8907" y1="378.7871" x2="203.1169" y2="-173.3454" gradientTransform="matrix(0.9911 -0.1333 0.1333 0.9911 -26.1944 112.7609)">
			<stop  offset="0" style="stop-color:#F7931E"/>
			<stop  offset="4.688963e-02" style="stop-color:#F29520"/>
			<stop  offset="0.1041" style="stop-color:#E39D24"/>
			<stop  offset="0.1668" style="stop-color:#CAA82C"/>
			<stop  offset="0.2329" style="stop-color:#A8B936"/>
			<stop  offset="0.2781" style="stop-color:#8CC63F"/>
			<stop  offset="0.3137" style="stop-color:#8BC142"/>
			<stop  offset="0.3555" style="stop-color:#87B349"/>
			<stop  offset="0.4004" style="stop-color:#819B56"/>
			<stop  offset="0.4475" style="stop-color:#797A68"/>
			<stop  offset="0.4957" style="stop-color:#6F517E"/>
			<stop  offset="0.531" style="stop-color:#662D91"/>
		</linearGradient>
		<path class="st3" d="M521.7,427.6l-157.1,25.1c-14.8,2.4-29.7-3.6-38.9-15.5l-96.7-126.4c-8.7-11.4-10.8-26.6-5.5-39.9l61.3-153.7
			c5.3-13.3,17.3-22.9,31.5-25.2L473.4,67c14.8-2.4,29.7,3.6,38.9,15.5L609,208.8c8.7,11.4,10.8,26.6,5.5,39.9l-61.3,153.7
			C547.8,415.8,535.9,425.3,521.7,427.6z"/>
		<path class="st2" d="M511.7,430.8l-151.5,1.6c-14.7,0.2-28.4-7.6-35.9-20.2l-77.1-130.4c-7.5-12.7-7.7-28.4-0.4-41.2l74.4-132
			c7.2-12.8,20.8-20.8,35.5-21L508.2,86c14.7-0.2,28.4,7.6,35.9,20.2l77.1,130.4c7.5,12.7,7.7,28.4,0.4,41.2l-74.4,132
			C540,422.6,526.5,430.6,511.7,430.8z"/>
		<g>
			<g>
				<g>
					<path class="st4" d="M351,148.6c3.3,64.5,3.3,129.1,0.1,193.5c-0.2,5,7.6,5,7.8,0c1.9-36,0.2-72.1-2.9-108
						c-1.5-17.6-3.4-35.1-5.2-52.6c-1.7-17.1-3-34.6,2.5-51.2c-1.9,0.8-3.8,1.6-5.7,2.3c13.3,6.4,17.5,22,22,34.8
						c5.7,16.1,11.9,32,18.5,47.7c13.4,31.7,28.5,62.5,45.5,92.4c9.8,17.2,20.1,34,31.1,50.5c1.9,2.9,7.8,2.2,7.3-2
						c-1.7-12.9-5.7-25.1-12-36.4c-2.5-4.4-9.2-0.5-6.8,3.9c5.7,10.1,9.4,21,11,32.5c2.4-0.7,4.9-1.3,7.3-2
						c-39.4-59.6-71.6-123.9-95.2-191.4c-4.9-14-10.3-30-24.7-36.9c-2.3-1.1-4.9-0.2-5.7,2.3c-5.3,16.1-4.7,33-3.2,49.6
						c1.7,18.1,3.8,36.2,5.3,54.3c3.2,36.6,5.1,73.3,3.1,110c2.6,0,5.2,0,7.8,0c3.2-64.5,3.2-129.1-0.1-193.5
						C358.6,143.6,350.8,143.6,351,148.6L351,148.6z"/>
				</g>
			</g>
			<g>
				<g>
					<path class="st4" d="M309.9,326.4c63.7-37.2,127.8-74.5,196.8-101.2c-1.3-2.2-2.5-4.4-3.8-6.5c-31.9,30.2-68.9,54.6-109.2,72.2
						c-4.6,2-0.6,8.7,3.9,6.8c40.9-17.8,78.4-42.7,110.7-73.4c2.7-2.6-0.1-8-3.8-6.5c-69.7,27-134.3,64.5-198.7,102
						C301.6,322.2,305.5,328.9,309.9,326.4L309.9,326.4z"/>
				</g>
			</g>
			<g>
				<g>
					<path class="st4" d="M461.5,198.1c15,40,22.2,82.4,21.2,125c2.6,0,5.2,0,7.8,0c-2-16.7-3.5-33.5-4.7-50.2
						c-1.1-16-2.5-32.1-1.7-48.1c0.4-8,1.5-15.9,3.8-23.6c1.9-6.6,4.8-14.8,11.1-18.5c2.9-1.7,6.9-2.4,10-0.8c3.6,1.9,4.6,6.2,5,9.9
						c0.9,7.5-0.2,15.1-2.2,22.3c-4.6,16.6-14.3,31.3-23.8,45.5c2.4,1,4.8,2,7.1,3c1.1-3.4,5.3-4.4,8.4-5.3c4.2-1.2,8.5-2.1,12.8-3
						c8.3-1.7,16.6-3,25-3.7c16.9-1.5,33.9-1.2,50.7,0.8c5,0.6,4.9-7.2,0-7.8c-20-2.4-40.1-2.3-60,0.2c-9.7,1.3-19.3,3-28.7,5.5
						c-6.7,1.7-13.3,4.2-15.7,11.3c-1.5,4.4,4.8,6.5,7.1,3c9.8-14.8,19.8-30.1,24.6-47.4c3.3-12,7-35.5-7.8-41.7
						c-16.3-6.8-27,10.9-30.9,23.8c-5.4,17.9-4.9,36.9-3.8,55.4c1.3,23.2,3.1,46.4,6,69.5c0.6,4.9,7.7,5.2,7.8,0
						c1-43.3-6.3-86.6-21.5-127.1C467.3,191.4,459.7,193.4,461.5,198.1L461.5,198.1z"/>
				</g>
			</g>
		</g>
		<g class="logo-name">
			<path class="st5" d="M354.1,505h-2.5l-2-7.2h-8.1l-1.9,7.2H337l7.3-25.7h2.3L354.1,505z M348.8,495.1l-3-11
				c-0.1-0.4-0.2-0.9-0.3-1.7h-0.1c-0.1,0.7-0.2,1.3-0.3,1.7l-3,11H348.8z"/>
			<path class="st5" d="M368.3,505h-2.2v-3.1H366c-1,2.4-2.6,3.6-4.7,3.6c-1.7,0-3.1-0.8-4.1-2.5c-1-1.6-1.5-3.9-1.5-6.7
				c0-3,0.6-5.5,1.7-7.3c1.1-1.8,2.7-2.7,4.6-2.7c1.9,0,3.2,1,4.1,3h0.1v-11.4h2.2V505z M366.1,496.7V494c0-1.5-0.4-2.7-1.1-3.8
				c-0.7-1-1.7-1.5-2.8-1.5c-1.3,0-2.4,0.7-3.2,2c-0.8,1.3-1.1,3.1-1.1,5.5c0,2.1,0.4,3.8,1.1,5c0.7,1.2,1.7,1.8,3,1.8
				c1.2,0,2.2-0.6,3-1.8C365.7,500,366.1,498.5,366.1,496.7z"/>
			<path class="st5" d="M379.8,489.6c-0.4-0.4-0.9-0.6-1.7-0.6c-0.9,0-1.7,0.6-2.3,1.8c-0.6,1.2-0.9,2.8-0.9,4.8v9.4h-2.2v-18.4h2.2
				v3.8h0.1c0.3-1.3,0.8-2.3,1.4-3c0.6-0.7,1.4-1.1,2.2-1.1c0.6,0,1,0.1,1.3,0.3V489.6z"/>
			<path class="st5" d="M383.3,482c-0.4,0-0.7-0.2-1-0.5c-0.3-0.4-0.4-0.8-0.4-1.4s0.1-1,0.4-1.4c0.3-0.4,0.6-0.5,1-0.5
				c0.4,0,0.7,0.2,1,0.5c0.3,0.4,0.4,0.8,0.4,1.4c0,0.5-0.1,1-0.4,1.3C384.1,481.8,383.7,482,383.3,482z M384.4,505h-2.2v-18.4h2.2
				V505z"/>
			<path class="st5" d="M398.6,505h-2.2v-2.9h-0.1c-1,2.2-2.4,3.3-4.2,3.3c-1.4,0-2.4-0.5-3.2-1.5c-0.8-1-1.2-2.3-1.2-3.9
				c0-3.4,1.5-5.4,4.5-6l4.1-0.8c0-3.1-0.9-4.7-2.8-4.7c-1.6,0-3.1,0.8-4.5,2.3v-3c1.3-1.1,2.9-1.7,4.6-1.7c3.2,0,4.8,2.3,4.8,6.9
				V505z M396.4,495.7l-3.3,0.6c-1,0.2-1.8,0.5-2.3,1c-0.5,0.5-0.8,1.3-0.8,2.6c0,0.9,0.2,1.6,0.7,2.2c0.5,0.6,1.1,0.9,1.9,0.9
				c1.1,0,2-0.5,2.7-1.5c0.7-1,1.1-2.3,1.1-3.9V495.7z"/>
			<path class="st5" d="M414.1,505h-2.2v-10.5c0-3.9-1.1-5.9-3.2-5.9c-1.1,0-2,0.6-2.7,1.7c-0.7,1.1-1.1,2.5-1.1,4.2V505h-2.2v-18.4
				h2.2v3.1h0.1c1-2.3,2.5-3.5,4.5-3.5c1.5,0,2.6,0.6,3.4,1.9c0.8,1.3,1.2,3.2,1.2,5.6V505z"/>
			<path class="st5" d="M439.8,505h-2.7l-3.2-7.2c-0.3-0.7-0.6-1.2-0.9-1.7c-0.3-0.5-0.6-0.9-0.8-1.2c-0.3-0.3-0.6-0.5-0.9-0.7
				c-0.3-0.1-0.7-0.2-1.1-0.2h-1.8V505H426v-25.7h5.7c0.8,0,1.6,0.1,2.3,0.4c0.7,0.3,1.3,0.7,1.8,1.3c0.5,0.6,0.9,1.3,1.2,2.1
				c0.3,0.9,0.4,1.9,0.4,3c0,0.9-0.1,1.7-0.3,2.5s-0.5,1.4-0.9,2c-0.4,0.6-0.8,1.1-1.3,1.5c-0.5,0.4-1.1,0.7-1.8,1v0.1
				c0.3,0.2,0.6,0.4,0.8,0.7c0.2,0.2,0.5,0.5,0.7,0.9c0.2,0.3,0.4,0.7,0.6,1.1c0.2,0.4,0.4,0.9,0.7,1.5L439.8,505z M428.3,482v9.3h3
				c0.6,0,1.1-0.1,1.6-0.3c0.5-0.2,0.9-0.6,1.2-1c0.3-0.4,0.6-0.9,0.8-1.6c0.2-0.6,0.3-1.3,0.3-2.1c0-1.4-0.3-2.4-1-3.2
				c-0.7-0.8-1.6-1.2-2.9-1.2H428.3z"/>
			<path class="st5" d="M447.8,505.4c-2,0-3.6-0.9-4.8-2.6s-1.8-4-1.8-6.8c0-3.1,0.6-5.5,1.9-7.2c1.3-1.7,3-2.6,5.1-2.6
				c2,0,3.6,0.8,4.8,2.5c1.1,1.7,1.7,4,1.7,7c0,2.9-0.6,5.3-1.9,7C451.5,504.5,449.9,505.4,447.8,505.4z M448,488.7
				c-1.4,0-2.5,0.6-3.3,1.9c-0.8,1.3-1.2,3.1-1.2,5.3c0,2.2,0.4,3.9,1.2,5.2c0.8,1.3,1.9,1.9,3.3,1.9c1.4,0,2.5-0.6,3.3-1.8
				c0.8-1.2,1.1-3,1.1-5.3c0-2.3-0.4-4.1-1.1-5.3C450.5,489.3,449.4,488.7,448,488.7z"/>
			<path class="st5" d="M457.3,504.3v-3.2c1.2,1.2,2.5,1.8,3.9,1.8c1.9,0,2.9-0.9,2.9-2.6c0-0.5-0.1-0.9-0.2-1.2
				c-0.2-0.3-0.4-0.6-0.7-0.9c-0.3-0.3-0.6-0.5-1-0.7c-0.4-0.2-0.8-0.4-1.2-0.7c-0.6-0.3-1.1-0.6-1.6-1c-0.5-0.3-0.8-0.7-1.1-1.1
				c-0.3-0.4-0.5-0.9-0.7-1.4c-0.2-0.5-0.2-1.1-0.2-1.8c0-0.9,0.1-1.6,0.4-2.3c0.3-0.7,0.7-1.2,1.2-1.7c0.5-0.4,1-0.8,1.7-1
				c0.6-0.2,1.3-0.3,1.9-0.3c1.2,0,2.2,0.3,3.2,0.8v3c-1-0.9-2.2-1.3-3.5-1.3c-0.4,0-0.8,0.1-1.1,0.2c-0.3,0.1-0.6,0.3-0.8,0.5
				c-0.2,0.2-0.4,0.5-0.5,0.8c-0.1,0.3-0.2,0.7-0.2,1c0,0.5,0.1,0.9,0.2,1.2c0.1,0.3,0.3,0.6,0.6,0.9s0.6,0.5,0.9,0.7
				c0.4,0.2,0.8,0.4,1.2,0.7c0.6,0.3,1.1,0.6,1.6,1c0.5,0.3,0.9,0.7,1.2,1.1c0.3,0.4,0.6,0.9,0.8,1.4c0.2,0.5,0.3,1.2,0.3,1.9
				c0,0.9-0.1,1.7-0.4,2.4c-0.3,0.7-0.7,1.2-1.2,1.7c-0.5,0.4-1.1,0.8-1.7,1c-0.7,0.2-1.3,0.3-2,0.3
				C459.6,505.4,458.3,505.1,457.3,504.3z"/>
			<path class="st5" d="M468.9,504.3v-3.2c1.2,1.2,2.5,1.8,3.9,1.8c1.9,0,2.9-0.9,2.9-2.6c0-0.5-0.1-0.9-0.2-1.2
				c-0.2-0.3-0.4-0.6-0.7-0.9c-0.3-0.3-0.6-0.5-1-0.7c-0.4-0.2-0.8-0.4-1.2-0.7c-0.6-0.3-1.1-0.6-1.6-1c-0.5-0.3-0.8-0.7-1.1-1.1
				c-0.3-0.4-0.5-0.9-0.7-1.4c-0.2-0.5-0.2-1.1-0.2-1.8c0-0.9,0.1-1.6,0.4-2.3c0.3-0.7,0.7-1.2,1.2-1.7c0.5-0.4,1-0.8,1.7-1
				c0.6-0.2,1.3-0.3,1.9-0.3c1.2,0,2.2,0.3,3.2,0.8v3c-1-0.9-2.2-1.3-3.5-1.3c-0.4,0-0.8,0.1-1.1,0.2c-0.3,0.1-0.6,0.3-0.8,0.5
				c-0.2,0.2-0.4,0.5-0.5,0.8c-0.1,0.3-0.2,0.7-0.2,1c0,0.5,0.1,0.9,0.2,1.2c0.1,0.3,0.3,0.6,0.6,0.9s0.6,0.5,0.9,0.7
				s0.8,0.4,1.2,0.7c0.6,0.3,1.1,0.6,1.6,1c0.5,0.3,0.9,0.7,1.2,1.1c0.3,0.4,0.6,0.9,0.8,1.4c0.2,0.5,0.3,1.2,0.3,1.9
				c0,0.9-0.1,1.7-0.4,2.4c-0.3,0.7-0.7,1.2-1.2,1.7c-0.5,0.4-1.1,0.8-1.7,1c-0.7,0.2-1.3,0.3-2,0.3
				C471.2,505.4,469.9,505.1,468.9,504.3z"/>
			<path class="st5" d="M482.5,482c-0.4,0-0.7-0.2-1-0.5c-0.3-0.4-0.4-0.8-0.4-1.4s0.1-1,0.4-1.4c0.3-0.4,0.6-0.5,1-0.5
				c0.4,0,0.7,0.2,1,0.5c0.3,0.4,0.4,0.8,0.4,1.4c0,0.5-0.1,1-0.4,1.3C483.2,481.8,482.9,482,482.5,482z M483.5,505h-2.2v-18.4h2.2
				V505z"/>
			<path class="st5" d="M499.3,505h-2.2v-10.5c0-3.9-1.1-5.9-3.2-5.9c-1.1,0-2,0.6-2.7,1.7c-0.7,1.1-1.1,2.5-1.1,4.2V505H488v-18.4
				h2.2v3.1h0.1c1-2.3,2.5-3.5,4.5-3.5c1.5,0,2.6,0.6,3.4,1.9c0.8,1.3,1.2,3.2,1.2,5.6V505z"/>
			<path class="st5" d="M509.2,505.4c-2,0-3.6-0.9-4.8-2.6s-1.8-4-1.8-6.8c0-3.1,0.6-5.5,1.9-7.2c1.3-1.7,3-2.6,5.1-2.6
				c2,0,3.6,0.8,4.8,2.5c1.1,1.7,1.7,4,1.7,7c0,2.9-0.6,5.3-1.9,7C512.9,504.5,511.3,505.4,509.2,505.4z M509.3,488.7
				c-1.4,0-2.5,0.6-3.3,1.9c-0.8,1.3-1.2,3.1-1.2,5.3c0,2.2,0.4,3.9,1.2,5.2c0.8,1.3,1.9,1.9,3.3,1.9c1.4,0,2.5-0.6,3.3-1.8
				c0.8-1.2,1.1-3,1.1-5.3c0-2.3-0.4-4.1-1.1-5.3C511.8,489.3,510.8,488.7,509.3,488.7z"/>
		</g>
		<g class="logo-title">
			<path class="st6" d="M296.4,516.3h-9.1v9h8.4v2.7h-8.4v11.5h-2.7v-25.9h11.8V516.3z"/>
			<path class="st6" d="M313.9,539.5h-2.7v-2.9h-0.1c-1.1,2.2-2.8,3.4-5.1,3.4c-4,0-5.9-2.6-5.9-7.9V521h2.6v10.6
				c0,3.9,1.3,5.9,4,5.9c1.3,0,2.4-0.5,3.2-1.6c0.8-1.1,1.3-2.5,1.3-4.2V521h2.7V539.5z"/>
			<path class="st6" d="M321.9,539.5h-2.7v-27.4h2.7V539.5z"/>
			<path class="st6" d="M330,539.5h-2.7v-27.4h2.7V539.5z"/>
			<path class="st6" d="M343.5,538.8v-3.2c1.5,1.2,3,1.8,4.8,1.8c2.3,0,3.5-0.9,3.5-2.6c0-0.5-0.1-0.9-0.3-1.3
				c-0.2-0.3-0.5-0.6-0.8-0.9c-0.3-0.3-0.7-0.5-1.2-0.7c-0.5-0.2-1-0.4-1.5-0.7c-0.7-0.3-1.4-0.7-1.9-1c-0.6-0.3-1-0.7-1.4-1.1
				s-0.7-0.9-0.8-1.4c-0.2-0.5-0.3-1.1-0.3-1.9c0-0.9,0.2-1.6,0.5-2.3c0.4-0.7,0.8-1.2,1.4-1.7c0.6-0.5,1.3-0.8,2-1
				c0.8-0.2,1.6-0.3,2.4-0.3c1.4,0,2.7,0.3,3.9,0.8v3c-1.2-0.9-2.6-1.3-4.2-1.3c-0.5,0-0.9,0.1-1.3,0.2s-0.7,0.3-1,0.5
				c-0.3,0.2-0.5,0.5-0.7,0.8c-0.2,0.3-0.2,0.7-0.2,1.1c0,0.5,0.1,0.9,0.2,1.2c0.2,0.3,0.4,0.6,0.7,0.9c0.3,0.3,0.7,0.5,1.1,0.7
				c0.4,0.2,0.9,0.4,1.5,0.7c0.7,0.3,1.4,0.6,2,1c0.6,0.3,1.1,0.7,1.5,1.1c0.4,0.4,0.7,0.9,1,1.4c0.2,0.5,0.3,1.2,0.3,1.9
				c0,0.9-0.2,1.7-0.5,2.4c-0.4,0.7-0.8,1.2-1.5,1.7c-0.6,0.4-1.3,0.8-2.1,1c-0.8,0.2-1.6,0.3-2.5,0.3
				C346.2,539.9,344.7,539.6,343.5,538.8z"/>
			<path class="st6" d="M366.3,539.3c-0.6,0.4-1.5,0.6-2.5,0.6c-2.9,0-4.4-1.8-4.4-5.4v-10.9h-2.9V521h2.9v-4.5l2.7-1v5.5h4.2v2.5
				h-4.2v10.4c0,1.2,0.2,2.1,0.6,2.7c0.4,0.5,1,0.8,1.9,0.8c0.7,0,1.3-0.2,1.7-0.6V539.3z"/>
			<path class="st6" d="M381.8,539.5h-2.7v-2.9H379c-1.2,2.2-2.9,3.3-5.1,3.3c-1.7,0-3-0.5-3.9-1.5c-0.9-1-1.4-2.3-1.4-3.9
				c0-3.5,1.8-5.5,5.5-6l5-0.8c0-3.1-1.1-4.7-3.4-4.7c-2,0-3.8,0.8-5.4,2.3v-3c1.6-1.2,3.5-1.7,5.7-1.7c3.9,0,5.9,2.3,5.9,6.9V539.5
				z M379.1,530.1l-4,0.6c-1.2,0.2-2.2,0.5-2.8,1c-0.6,0.5-0.9,1.4-0.9,2.6c0,0.9,0.3,1.6,0.9,2.2c0.6,0.6,1.4,0.9,2.3,0.9
				c1.3,0,2.4-0.5,3.3-1.5c0.9-1,1.3-2.3,1.3-3.9V530.1z"/>
			<path class="st6" d="M398.1,538.6c-1.3,0.9-2.8,1.3-4.5,1.3c-2.4,0-4.3-0.9-5.7-2.6c-1.5-1.7-2.2-3.9-2.2-6.7
				c0-3,0.8-5.5,2.4-7.3c1.6-1.8,3.7-2.8,6.3-2.8c1.5,0,2.8,0.3,3.9,0.9v3c-1.2-1-2.6-1.4-4-1.4c-1.7,0-3.1,0.7-4.2,2
				c-1.1,1.4-1.6,3.1-1.6,5.3c0,2.2,0.5,3.9,1.5,5.1c1,1.3,2.4,1.9,4.1,1.9c1.5,0,2.8-0.5,4.1-1.6V538.6z"/>
			<path class="st6" d="M415.9,539.5h-3.7l-7.3-8.9h-0.1v8.9h-2.7v-27.4h2.7v17.4h0.1l7-8.5h3.5l-7.7,8.9L415.9,539.5z"/>
			<path class="st6" d="M442,539.5h-2.7v-3.1h-0.1c-1.2,2.4-3.1,3.6-5.7,3.6c-2.1,0-3.8-0.8-5-2.5c-1.3-1.7-1.9-3.9-1.9-6.8
				c0-3.1,0.7-5.5,2.1-7.3c1.4-1.8,3.2-2.8,5.5-2.8c2.3,0,3.9,1,5,3h0.1v-11.4h2.7V539.5z M439.3,531.1v-2.7c0-1.5-0.4-2.8-1.3-3.8
				s-2-1.6-3.4-1.6c-1.6,0-2.9,0.7-3.8,2c-0.9,1.3-1.4,3.2-1.4,5.5c0,2.1,0.4,3.8,1.3,5c0.9,1.2,2.1,1.9,3.6,1.9
				c1.5,0,2.7-0.6,3.6-1.8C438.9,534.5,439.3,533,439.3,531.1z"/>
			<path class="st6" d="M460.7,531H449c0,2.1,0.5,3.6,1.5,4.8c1,1.1,2.3,1.7,3.9,1.7c1.9,0,3.6-0.7,5.2-2.1v2.8
				c-1.5,1.2-3.4,1.8-5.8,1.8c-2.3,0-4.2-0.8-5.5-2.5c-1.3-1.7-2-4-2-7.1c0-2.9,0.7-5.2,2.2-7c1.5-1.8,3.3-2.7,5.5-2.7
				c2.2,0,3.9,0.8,5.1,2.3c1.2,1.6,1.8,3.7,1.8,6.5V531z M458,528.5c0-1.7-0.4-3-1.1-4s-1.7-1.4-3-1.4c-1.3,0-2.3,0.5-3.2,1.5
				c-0.9,1-1.4,2.3-1.6,3.9H458z"/>
			<path class="st6" d="M477.8,521l-6.6,18.5h-2.6l-6.3-18.5h2.9l4.2,13.4c0.3,1,0.5,1.8,0.6,2.6h0.1c0.1-0.9,0.3-1.8,0.5-2.5
				L475,521H477.8z"/>
			<path class="st6" d="M494.1,531h-11.7c0,2.1,0.5,3.6,1.5,4.8c1,1.1,2.3,1.7,3.9,1.7c1.9,0,3.6-0.7,5.2-2.1v2.8
				c-1.5,1.2-3.4,1.8-5.8,1.8c-2.3,0-4.2-0.8-5.5-2.5c-1.3-1.7-2-4-2-7.1c0-2.9,0.7-5.2,2.2-7c1.5-1.8,3.3-2.7,5.5-2.7
				s3.9,0.8,5.1,2.3c1.2,1.6,1.8,3.7,1.8,6.5V531z M491.3,528.5c0-1.7-0.4-3-1.1-4s-1.7-1.4-3-1.4c-1.3,0-2.3,0.5-3.2,1.5
				c-0.9,1-1.4,2.3-1.6,3.9H491.3z"/>
			<path class="st6" d="M500.8,539.5h-2.7v-27.4h2.7V539.5z"/>
			<path class="st6" d="M513.1,539.9c-2.5,0-4.4-0.9-5.9-2.6c-1.5-1.7-2.2-4-2.2-6.9c0-3.1,0.8-5.5,2.3-7.3s3.6-2.6,6.2-2.6
				c2.5,0,4.4,0.8,5.8,2.5s2.1,4.1,2.1,7.1c0,2.9-0.7,5.3-2.2,7.1C517.6,539,515.6,539.9,513.1,539.9z M513.3,523.1
				c-1.7,0-3.1,0.6-4.1,1.9c-1,1.3-1.5,3.1-1.5,5.4c0,2.2,0.5,3.9,1.5,5.2c1,1.3,2.4,1.9,4,1.9c1.7,0,3-0.6,4-1.9
				c0.9-1.2,1.4-3,1.4-5.3c0-2.3-0.5-4.1-1.4-5.3C516.3,523.7,515,523.1,513.3,523.1z"/>
			<path class="st6" d="M528.4,536.8L528.4,536.8l-0.1,11.2h-2.7v-27h2.7v3.3h0.1c1.3-2.5,3.2-3.7,5.7-3.7c2.1,0,3.8,0.8,5,2.5
				c1.2,1.7,1.8,3.9,1.8,6.7c0,3.1-0.7,5.6-2,7.4c-1.4,1.9-3.2,2.8-5.6,2.8C531.2,539.9,529.5,538.9,528.4,536.8z M528.3,529.4v2.6
				c0,1.5,0.4,2.8,1.3,3.9c0.9,1.1,2,1.6,3.4,1.6c1.6,0,2.9-0.7,3.8-2.1c0.9-1.4,1.4-3.3,1.4-5.7c0-2.1-0.4-3.7-1.3-4.8
				c-0.9-1.2-2-1.8-3.5-1.8c-1.5,0-2.8,0.6-3.7,1.8C528.8,526.1,528.3,527.6,528.3,529.4z"/>
			<path class="st6" d="M558.6,531h-11.7c0,2.1,0.5,3.6,1.5,4.8c1,1.1,2.3,1.7,3.9,1.7c1.9,0,3.6-0.7,5.2-2.1v2.8
				c-1.5,1.2-3.4,1.8-5.8,1.8c-2.3,0-4.2-0.8-5.5-2.5c-1.3-1.7-2-4-2-7.1c0-2.9,0.7-5.2,2.2-7c1.5-1.8,3.3-2.7,5.5-2.7
				s3.9,0.8,5.1,2.3c1.2,1.6,1.8,3.7,1.8,6.5V531z M555.8,528.5c0-1.7-0.4-3-1.1-4s-1.7-1.4-3-1.4c-1.3,0-2.3,0.5-3.2,1.5
				c-0.9,1-1.4,2.3-1.6,3.9H555.8z"/>
			<path class="st6" d="M571.3,524c-0.5-0.4-1.1-0.6-2-0.6c-1.1,0-2.1,0.6-2.9,1.8c-0.8,1.2-1.1,2.8-1.1,4.9v9.4h-2.7V521h2.7v3.8
				h0.1c0.4-1.3,1-2.3,1.7-3c0.8-0.7,1.7-1.1,2.6-1.1c0.7,0,1.2,0.1,1.6,0.3V524z"/>
		</g>
	</g>
</g>
</svg>
